<?xml version="1.0" standalone="no"?>
<!DOCTYPE svg PUBLIC "-//W3C//DTD SVG 20010904//EN"
 "http://www.w3.org/TR/2001/REC-SVG-20010904/DTD/svg10.dtd">
<svg version="1.0" xmlns="http://www.w3.org/2000/svg"
 width="500.000000pt" height="500.000000pt" viewBox="0 0 500.000000 500.000000"
 preserveAspectRatio="xMidYMid meet">

<g transform="translate(0.000000,500.000000) scale(0.100000,-0.100000)"
fill="#000000" stroke="none">
<path d="M0 2500 l0 -2500 2500 0 2500 0 0 2500 0 2500 -2500 0 -2500 0 0
-2500z m2115 1390 c7 -14 68 -169 135 -345 68 -176 125 -322 126 -324 2 -2 34
12 71 32 149 78 304 106 476 88 193 -21 337 -88 454 -210 42 -44 102 -137 95
-147 -4 -5 -20 -20 -36 -32 l-29 -22 -35 52 c-77 114 -170 188 -301 236 -98
37 -303 43 -420 14 -94 -24 -189 -70 -242 -116 -20 -17 -58 -49 -85 -72 -105
-87 -205 -282 -243 -469 -24 -120 -30 -229 -13 -231 7 -1 156 -2 331 -3 l319
-1 40 -102 c22 -57 57 -146 77 -198 20 -52 72 -186 116 -297 43 -112 79 -205
79 -208 0 -3 -24 -5 -54 -5 l-55 0 -39 103 c-21 56 -83 218 -137 360 l-99 257
-298 0 -298 0 6 -62 c8 -95 33 -215 60 -292 74 -213 234 -371 434 -430 131
-39 343 -39 473 -1 132 39 266 140 341 258 20 31 40 57 44 57 4 0 20 -11 37
-24 28 -23 29 -25 15 -52 -53 -101 -179 -221 -287 -274 -146 -71 -320 -99
-486 -80 -248 29 -413 124 -556 319 -136 186 -198 517 -157 831 35 256 116
437 272 600 l52 55 -113 295 c-62 162 -117 301 -122 308 -5 9 -39 -64 -102
-220 -51 -128 -180 -447 -286 -708 -106 -261 -196 -486 -200 -500 -4 -14 -16
-43 -26 -65 -10 -22 -81 -195 -157 -385 l-138 -345 -52 -3 c-39 -2 -52 0 -52
11 0 7 36 101 79 208 43 107 240 590 436 1074 448 1104 437 1079 447 1085 4 3
26 6 49 5 33 -1 44 -6 54 -25z m-771 -2110 c10 -28 16 -54 12 -57 -3 -4 -6 1
-6 10 0 23 -49 22 -67 0 -8 -11 -5 4 7 35 11 29 20 55 20 57 0 3 4 5 8 5 4 0
16 -23 26 -50z m143 24 c15 -24 15 -29 2 -53 -10 -18 -24 -27 -47 -29 l-32 -3
0 55 c0 55 0 56 30 56 21 0 35 -8 47 -26z m96 19 c-15 -3 -23 -12 -23 -24 0
-13 7 -19 23 -20 l22 -2 -22 -4 c-34 -6 -30 -41 5 -46 25 -4 25 -4 -5 -6 l-33
-1 0 55 c0 54 1 55 28 54 23 -2 24 -2 5 -6z m105 -96 c25 -4 24 -4 -5 -6 l-33
-1 2 58 2 57 3 -52 c4 -47 6 -52 31 -56z m69 21 c-2 -18 -4 -6 -4 27 0 33 2
48 4 33 2 -15 2 -42 0 -60z m114 12 l17 -25 0 44 c0 24 3 46 6 49 3 3 6 -20 6
-51 0 -31 -3 -57 -7 -57 -5 0 -21 20 -38 44 l-30 45 -6 -47 -6 -47 -1 60 -1
60 22 -25 c12 -14 29 -37 38 -50z m133 37 c7 -19 17 -45 20 -58 6 -20 5 -21
-4 -6 -6 9 -22 17 -35 17 -13 0 -29 -8 -35 -17 -14 -21 -9 -6 15 55 9 23 19
42 21 42 2 0 10 -15 18 -33z m-700 -175 c3 -5 -8 -6 -24 -4 -25 4 -31 0 -40
-23 -15 -40 3 -68 41 -63 18 3 26 1 21 -4 -5 -5 -22 -8 -38 -6 -59 7 -49 108
11 108 13 0 26 -4 29 -8z m86 -42 c24 0 29 5 33 28 2 15 4 0 4 -33 0 -33 -2
-48 -4 -32 -4 22 -9 27 -33 27 -24 0 -29 -5 -33 -27 -2 -16 -4 -1 -4 32 0 33
2 48 4 33 4 -23 9 -28 33 -28z m179 -55 c0 -5 -4 -2 -10 8 -6 10 -22 17 -39
17 -22 0 -30 -5 -31 -17 0 -10 -3 -13 -5 -7 -2 6 5 33 17 60 l22 49 23 -50
c13 -27 23 -54 23 -60z m54 58 c-7 -71 -11 -75 -12 -10 -1 31 3 57 8 57 5 0 6
-21 4 -47z m75 -40 c-3 -27 -3 -27 -37 15 -18 24 -31 45 -29 48 3 2 17 -13 31
-33 l27 -38 2 50 c1 37 2 41 5 17 2 -18 3 -45 1 -59z m126 71 c36 -36 9 -94
-45 -94 -29 0 -29 1 -29 55 0 54 0 55 29 55 16 0 37 -7 45 -16z m123 -14 c1
-22 1 -22 -4 -2 -6 29 -43 31 -43 2 0 -11 7 -20 16 -20 8 0 13 -4 9 -10 -3 -5
3 -18 15 -30 11 -11 16 -20 10 -20 -5 0 -18 12 -27 27 l-18 27 -6 -29 c-5 -22
-7 -15 -8 28 -1 58 -1 58 27 55 21 -2 27 -9 29 -28z m116 -21 c10 -28 16 -53
13 -57 -3 -3 -6 2 -6 11 0 23 -49 22 -67 0 -8 -11 -5 4 7 35 11 29 20 55 20
57 0 3 3 5 8 5 4 0 15 -23 25 -51z"/>
<path d="M1310 1801 c0 -5 -3 -16 -6 -25 -4 -11 0 -16 14 -16 15 0 19 5 15 20
-6 22 -23 38 -23 21z"/>
<path d="M1420 1775 c0 -41 2 -45 25 -45 17 0 29 8 36 24 15 32 -4 66 -36 66
-23 0 -25 -4 -25 -45z"/>
<path d="M1976 1795 c-10 -26 -7 -35 9 -35 17 0 19 18 6 38 -7 11 -10 10 -15
-3z"/>
<path d="M1512 1585 c-10 -22 -9 -25 8 -25 21 0 26 16 12 38 -6 9 -12 6 -20
-13z"/>
<path d="M1760 1575 c0 -40 2 -45 23 -45 29 0 47 18 47 45 0 27 -18 45 -47 45
-21 0 -23 -5 -23 -45z"/>
<path d="M2030 1601 c0 -5 -3 -16 -6 -25 -4 -11 0 -16 14 -16 15 0 19 5 15 20
-6 22 -23 38 -23 21z"/>
</g>
</svg>
