<?xml version="1.0" encoding="UTF-8"?>
<!DOCTYPE svg PUBLIC "-//W3C//DTD SVG 1.1//EN" "http://www.w3.org/Graphics/SVG/1.1/DTD/svg11.dtd">
<!-- Creator: CorelDRAW 2018 (64-Bit) -->
<svg xmlns="http://www.w3.org/2000/svg" xml:space="preserve" width="4.26666in" height="2.4in" version="1.1" style="shape-rendering:geometricPrecision; text-rendering:geometricPrecision; image-rendering:optimizeQuality; fill-rule:evenodd; clip-rule:evenodd"
viewBox="0 0 4266.66 2400"
 xmlns:xlink="http://www.w3.org/1999/xlink">
 <defs>
  <style type="text/css">
   <![CDATA[
    .fil0 {fill:none}
    .fil1 {fill:#FFCC00}
   ]]>
  </style>
 </defs>
 <g id="Layer_x0020_1">
  <metadata id="CorelCorpID_0Corel-Layer"/>
  <rect class="fil0" x="-0.11" y="-0.1" width="4266.67" height="2400"/>
  <path class="fil1" d="M2601.35 1482.34c20.1,43.01 72.9,64.15 120.82,47.24 4.19,-1.48 8.2,-3.2 12.04,-5.15 -3.41,29.31 -24.9,53.57 -53.76,62.5 -38.97,12.06 -77.91,-10.62 -86.71,-50.46 -4.11,-18.62 -0.92,-37.77 7.61,-54.13zm-86.27 195.38c-13.86,-76.99 -57.54,-141.43 -117.57,-177.72 75.68,11.4 133.52,79.42 139.55,164.57 -7.02,4.93 -14.37,9.33 -21.97,13.14zm-381.75 12.55c-71.99,27.69 -142.05,54.41 -215.42,79.05 -53.63,18.02 -111.01,41.66 -167.03,38.81 -44.9,-2.28 -76.79,-47.41 -101.35,-75.14 -9.78,-11.04 -33.41,3.28 -32.26,34.92 -11.04,-11.2 -24.92,-37.33 -25.77,-55.64 -1.14,-24.66 24.63,-40.67 49.97,-39.09 54,3.35 88.75,48.06 138.73,55.06 50.71,7.1 101.39,-0.25 151.87,-8.78 68.55,-11.58 134,-35.2 201.26,-52.81 67.26,17.6 132.71,41.23 201.26,52.81 50.49,8.53 101.17,15.88 151.87,8.78 49.98,-7 84.74,-51.7 138.73,-55.06 25.34,-1.57 51.11,14.44 49.97,39.09 -0.85,18.31 -14.73,44.44 -25.77,55.64 1.14,-31.64 -22.48,-45.96 -32.26,-34.92 -24.56,27.74 -56.45,72.86 -101.35,75.14 -56.02,2.85 -113.4,-20.8 -167.03,-38.81 -73.37,-24.64 -143.43,-51.37 -215.42,-79.05zm48.48 86.15c0.04,0.65 0.06,1.31 0.06,1.96 0,22.09 -21.8,40.11 -48.54,40.11 -26.73,0 -48.54,-18.02 -48.54,-40.11 0,-0.65 0.02,-1.31 0.06,-1.96 13.43,5.25 30.25,8.39 48.48,8.39 18.23,0 35.05,-3.14 48.48,-8.39zm17.54 84.83c-7.62,21.05 -34.35,36.67 -66.02,36.67 -31.66,0 -58.39,-15.62 -66.02,-36.67 18.56,5.9 41.37,9.39 66.02,9.39 24.64,0 47.46,-3.5 66.02,-9.39zm-66.02 -148.65c63.63,0 115.52,58.56 115.52,130.37 0,71.81 -51.89,130.37 -115.52,130.37 -63.63,0 -115.52,-58.56 -115.52,-130.37 0,-71.8 51.89,-130.37 115.52,-130.37zm-128.67 38.34c-3.85,6.69 -7.95,13.34 -12.31,19.91 -60.59,91.34 -147.57,135.46 -193.63,98.23 -11.2,-9.06 -18.97,-22.13 -23.45,-38.03 31.19,0.98 65.49,-3.05 100.55,-12.77 51.83,-14.37 96.68,-38.74 128.84,-67.35zm257.35 0c32.17,28.61 77.02,52.98 128.84,67.35 35.06,9.72 69.36,13.75 100.55,12.77 -4.48,15.9 -12.24,28.97 -23.45,38.03 -46.06,37.24 -133.04,-6.89 -193.63,-98.23 -4.36,-6.57 -8.46,-13.23 -12.31,-19.91zm-12.74 169.3c11.93,-22.67 18.79,-49.09 18.79,-77.28 0,-15 -1.96,-29.51 -5.57,-43.22 45.13,51.16 95.28,85.91 140.67,99.28 -21.97,17.27 -58.15,28.58 -98.93,28.58 -19.76,0 -38.44,-2.66 -54.94,-7.37zm-231.87 0c-16.51,4.7 -35.19,7.37 -54.94,7.37 -40.78,0 -76.96,-11.31 -98.93,-28.58 45.39,-13.37 95.54,-48.12 140.67,-99.28 -3.62,13.71 -5.57,28.22 -5.57,43.22 0,28.19 6.86,54.61 18.79,77.28zm115.94 -282.06c-109.56,46.62 -317.69,122.54 -423.46,38.69 -11.5,-60.74 22.76,-120.14 77.67,-161.48 45.56,-34.3 104.69,-52.26 157.64,-53.26 34.88,-0.65 94.26,-0.2 90.55,49.99 -8.79,-11.69 -27,-14.63 -41.29,-13.52 -43.38,3.39 -70.34,36.72 -100.07,69.07 -24.44,26.6 -46.12,50.02 -55.52,84.9 -3.41,12.64 9.07,39.04 22.16,39.54 46.09,1.77 123.15,-21.41 163.62,-38.95 28.13,-12.19 46.5,-31.69 61.81,-59.64 17.15,-31.31 31.26,-64.2 46.89,-96.3 15.63,32.1 29.74,64.99 46.89,96.3 15.31,27.95 33.68,47.44 61.81,59.64 40.47,17.54 117.52,40.72 163.62,38.95 13.09,-0.5 25.56,-26.91 22.16,-39.54 -9.4,-34.88 -31.08,-58.3 -55.52,-84.9 -29.73,-32.36 -56.69,-65.69 -100.07,-69.07 -14.28,-1.11 -32.5,1.83 -41.29,13.52 -3.71,-50.19 55.67,-50.64 90.55,-49.99 52.95,1 112.08,18.96 157.64,53.26 54.91,41.35 89.17,100.75 77.67,161.48 -105.77,83.85 -313.91,7.93 -423.46,-38.69zm310.87 56.59c5.67,-16 6.94,-36.09 1.86,-54.32 -10.3,-36.94 -34.63,-63.93 -59.7,-96.96 -5.93,-11.22 -6.23,-20.33 -3.36,-25.22 56.66,34.97 98.45,95.17 113.89,167.23 -16.72,6 -34.44,9.26 -52.7,9.26zm-621.74 0c-18.26,0 -35.97,-3.26 -52.7,-9.26 15.44,-72.06 57.24,-132.26 113.89,-167.23 2.87,4.89 2.57,14 -3.36,25.22 -25.07,33.02 -49.4,60.02 -59.7,96.96 -5.08,18.23 -3.81,38.33 1.86,54.32zm-70.88 -17.05c-7.61,-3.81 -14.95,-8.21 -21.97,-13.14 6.02,-85.15 63.87,-153.18 139.55,-164.57 -60.04,36.28 -103.72,100.73 -117.57,177.72zm353.19 -416.86c12.43,25.75 19.37,54.43 19.37,84.64 -0,30.22 -6.96,58.91 -19.38,84.66 -24.57,-25.43 -38.44,-54.21 -38.44,-84.65 0.01,-30.44 13.89,-59.21 38.45,-84.65zm57.13 0c24.57,25.44 38.44,54.2 38.45,84.65 0,30.44 -13.87,59.22 -38.44,84.65 -12.43,-25.76 -19.38,-54.44 -19.38,-84.66 0,-30.21 6.95,-58.89 19.37,-84.64zm-28.57 -384.87c28.33,0 51.44,28.07 51.44,101.61 0,73.54 -23.11,165.43 -51.44,165.43 -28.33,0 -51.44,-91.89 -51.44,-165.43 0,-73.54 23.11,-101.61 51.44,-101.61zm0 293.92c13.03,0 23.65,10.63 23.65,23.65 0,13.03 -10.63,23.65 -23.65,23.65 -13.03,0 -23.65,-10.63 -23.65,-23.65 0,-13.03 10.63,-23.65 23.65,-23.65zm53.33 -311.38c-12.65,-46.66 -19.98,-101.67 -19.98,-160.48 0,-58.82 7.32,-113.83 19.98,-160.49 47.74,26.41 81.4,88.46 81.4,160.49 0,72.03 -33.66,134.08 -81.39,160.48zm-120.17 42.33c-97.62,-30.56 -171.55,-125.45 -163.24,-234.62 9.94,-130.58 155.24,-159.55 230.08,-239.58 74.84,80.03 220.15,109 230.08,239.58 8.31,109.16 -65.61,204.06 -163.24,234.62 3.01,15.62 4.82,33.83 5.23,54.87 23.28,-39.87 104.77,-91.2 161.01,-130.79 45.93,-32.34 72.15,-80.46 72.15,-126.53 0,-42.76 -21.48,-81.5 -55.93,-109.15 20.43,-3.72 47.77,-3.56 65.29,-2.66 92.3,4.78 167.43,76.23 167.43,166.37 0,90.14 -76.96,165.91 -169.38,165.91 -55.6,0 -120.02,-19.2 -177.69,25.56 -22.68,17.6 -71.18,95.81 -91.54,167.6 -5.87,20.72 -8.83,41.53 -8.07,60.29 0.96,23.41 7,49.94 29.13,62.94 9.31,-55.26 36.54,-106.44 55.07,-143.42 20.74,-41.39 53.89,-78.59 96.56,-96.56 41.77,-17.59 92.76,-15.09 135.95,-1.37 55.37,17.58 125.02,59.09 190.5,26.02 40.15,-20.27 72.51,-55.65 89.41,-100.76 3.04,-8.13 5.47,-16.34 7.33,-24.58 42.31,44.19 53.26,108.22 30.21,162.64 -14.09,33.27 -39.57,56.94 -70.13,69.29 -84.01,33.92 -141.93,-2.06 -182.36,-42.81 -44.43,-44.79 -91.56,-69.73 -142.56,-67.78 -83.33,3.17 -134.37,94.62 -154.31,177.09 25.48,-37.67 59.19,-68.33 90.97,-84.02 48.09,-23.74 105.32,-16.7 150.08,18.23 62.52,48.79 107.38,137.14 178.58,168.7 53.52,23.73 118.56,23.97 167.03,-26.96 4.3,90.37 -73.46,128.07 -119.87,127.67 -32.75,-0.29 -64.76,-21.12 -90.86,-49.57 -47.68,-51.99 -82.29,-114.6 -124.69,-171.75 -21.56,-29.05 -59.27,-50.89 -105.37,-51.38 -26.21,-0.27 -78.07,26.78 -110.45,78.58 -16.31,26.09 -32.71,53.74 -45.08,77.44l18.44 78.1 43.02 -16.22 29.31 63.42c12.9,-2.34 28.11,-20.83 30.52,-39.76 5.37,-42.2 -7.2,-86.35 3.83,-127.51 8.09,-30.2 32.05,-38.31 51.66,-33.88 26.51,5.98 32.59,32.46 15.59,62.38 0.51,-10.28 -9.55,-23.1 -19.66,-22.44 -15.83,1.04 -17.57,26.72 -16.42,40.32 3.23,38.07 38.03,60.74 38.7,104.46 0.69,45.5 -27.38,68.03 -68.61,64.68 -40.41,-3.29 -82.06,-23.9 -123.41,-22.83 -25.35,0.66 -57.06,12.85 -57.3,48.57 -0.48,69.47 96.05,43.92 143.61,62.5 -0.96,28.7 -26.49,44.64 -83.09,32.53 4.26,23.4 -0.72,43.88 -14.75,46.43 -17.37,3.15 -34.37,-16.67 -41.14,-29.47 -15.85,-29.96 -21.02,-69.91 -36.99,-107.54 -4.84,-11.41 -11.22,-31.09 -23.8,-31.09 -12.57,0 -18.96,19.68 -23.8,31.09 -15.98,37.64 -21.15,77.59 -36.99,107.54 -6.77,12.8 -23.77,32.62 -41.14,29.47 -14.04,-2.54 -19.01,-23.02 -14.75,-46.43 -56.6,12.11 -82.13,-3.83 -83.09,-32.53 47.56,-18.59 144.09,6.96 143.61,-62.5 -0.24,-35.72 -31.95,-47.91 -57.3,-48.57 -41.35,-1.07 -83,19.54 -123.41,22.83 -41.23,3.35 -69.3,-19.18 -68.61,-64.68 0.67,-43.73 35.46,-66.39 38.7,-104.46 1.15,-13.6 -0.59,-39.29 -16.42,-40.32 -10.11,-0.66 -20.17,12.16 -19.66,22.44 -16.99,-29.92 -10.91,-56.4 15.59,-62.38 19.61,-4.43 43.57,3.68 51.66,33.88 11.03,41.16 -1.54,85.3 3.83,127.51 2.41,18.93 17.62,37.42 30.52,39.76l29.31 -63.42 43.02 16.22 18.45 -78.11c-12.37,-23.69 -28.77,-51.34 -45.08,-77.43 -32.38,-51.8 -84.24,-78.85 -110.45,-78.58 -46.09,0.48 -83.81,22.33 -105.37,51.38 -42.4,57.15 -77.01,119.76 -124.69,171.75 -26.1,28.45 -58.11,49.28 -90.86,49.57 -46.41,0.4 -124.17,-37.31 -119.87,-127.67 48.48,50.93 113.51,50.69 167.03,26.96 71.2,-31.57 116.06,-119.92 178.58,-168.7 44.76,-34.93 101.98,-41.97 150.08,-18.23 31.78,15.69 65.49,46.34 90.97,84.02 -19.94,-82.46 -70.97,-173.91 -154.31,-177.09 -51,-1.94 -98.12,23 -142.56,67.78 -40.44,40.75 -98.35,76.72 -182.36,42.81 -30.56,-12.34 -56.04,-36.02 -70.13,-69.29 -23.05,-54.42 -12.1,-118.44 30.21,-162.64 1.86,8.24 4.28,16.45 7.33,24.58 16.9,45.11 49.26,80.49 89.41,100.76 65.48,33.07 135.13,-8.44 190.5,-26.02 43.19,-13.72 94.18,-16.22 135.95,1.37 42.67,17.97 75.82,55.17 96.56,96.56 18.52,36.98 45.76,88.15 55.07,143.42 22.13,-13 28.17,-39.53 29.13,-62.94 0.77,-18.76 -2.19,-39.57 -8.07,-60.29 -20.36,-71.8 -68.86,-150 -91.54,-167.6 -57.67,-44.76 -122.09,-25.56 -177.69,-25.56 -92.43,0 -169.38,-75.77 -169.38,-165.91 0,-90.15 75.12,-161.59 167.43,-166.37 17.52,-0.91 44.86,-1.07 65.29,2.66 -34.45,27.66 -55.93,66.39 -55.93,109.15 0,46.07 26.22,94.19 72.15,126.53 56.24,39.59 137.73,90.92 161.01,130.79 0.4,-21.04 2.23,-39.25 5.23,-54.87zm13.51 -42.33c-47.74,-26.41 -81.39,-88.45 -81.39,-160.48 0,-72.03 33.66,-134.08 81.4,-160.49 12.65,46.66 19.98,101.67 19.98,160.49 0,58.82 -7.33,113.82 -19.98,160.48zm-387.67 701.52c8.78,11.19 13.89,25.26 13.41,39.96 -1.04,31.45 -27.36,54.14 -58.62,50.5 -23.13,-2.69 -42.85,-18.05 -49.57,-39.79 3.18,0.93 6.47,1.67 9.84,2.2 38.72,6.06 75.76,-17.43 84.93,-52.87zm93.52 -621.38c-26.22,26.96 -61.64,46.09 -101.06,51.53 -84.38,11.63 -155.94,-43.75 -159.3,-123.29 -2.5,-58.94 30.27,-115.04 85.48,-141.65 -1.15,8.36 -1.76,16.89 -1.76,25.55 0,99.3 78.19,181.06 176.65,187.87zm-116.3 229.75c-6.27,32.69 -23.05,63.5 -49.36,85.55 -56.3,47.19 -135.4,36.83 -176.1,-23.06 -30.16,-44.39 -33.09,-102.54 -5.38,-148.09 3.17,6.98 6.82,13.83 10.98,20.52 47.73,76.68 144.37,104.41 219.86,65.08zm-17.94 203.76c8.81,23.59 9.92,50.08 1.23,74.61 -18.6,52.51 -75.17,76.69 -125.93,53.84 -37.62,-16.94 -62.65,-53.41 -62.37,-93.7 4.87,3.28 10.02,6.29 15.44,8.99 62.09,30.96 137.19,11.16 171.63,-43.75zm13.69 110.15c8.54,16.35 11.72,35.51 7.61,54.13 -8.8,39.84 -47.74,62.52 -86.71,50.46 -28.86,-8.92 -50.34,-33.19 -53.76,-62.5 3.84,1.94 7.85,3.67 12.04,5.15 47.92,16.92 100.72,-4.23 120.82,-47.24zm949.74 -110.15c34.44,54.91 109.54,74.71 171.63,43.75 5.42,-2.7 10.56,-5.72 15.44,-8.99 0.29,40.29 -24.74,76.76 -62.37,93.7 -50.76,22.85 -107.33,-1.33 -125.93,-53.84 -8.69,-24.53 -7.58,-51.02 1.23,-74.61zm-17.94 -203.76c75.48,39.33 172.13,11.6 219.86,-65.08 4.16,-6.69 7.81,-13.55 10.98,-20.52 27.71,45.56 24.78,103.71 -5.38,148.09 -40.7,59.89 -119.81,70.25 -176.1,23.06 -26.31,-22.05 -43.09,-52.87 -49.36,-85.55zm-116.3 -229.75c98.46,-6.81 176.65,-88.57 176.65,-187.87 0,-8.66 -0.61,-17.19 -1.76,-25.55 55.22,26.62 87.98,82.71 85.48,141.65 -3.37,79.54 -74.93,134.92 -159.3,123.29 -39.43,-5.44 -74.85,-24.57 -101.06,-51.53zm93.52 621.38c9.17,35.45 46.22,58.94 84.93,52.87 3.37,-0.53 6.67,-1.27 9.84,-2.2 -6.71,21.74 -26.44,37.1 -49.57,39.79 -31.26,3.64 -57.58,-19.06 -58.62,-50.5 -0.48,-14.7 4.63,-28.77 13.41,-39.96z"/>
 </g>
</svg>
