<?xml version="1.0" encoding="utf-8"?>
<!-- Generator: Adobe Illustrator 26.0.3, SVG Export Plug-In . SVG Version: 6.00 Build 0)  -->
<svg version="1.0" id="Layer_1" xmlns="http://www.w3.org/2000/svg" xmlns:xlink="http://www.w3.org/1999/xlink" x="0px" y="0px"
	 viewBox="0 0 346 254" style="enable-background:new 0 0 346 254;" xml:space="preserve">
<style type="text/css">
	.st0{fill:#893E01;}
	.st1{fill:#0C1464;}
</style>
<g>
	<g>
		<path class="st0" d="M163,128.6v4.6c0,0.2,1.1,0.6,1.1,0.6h-3.3c0,0,1-0.4,1-0.6v-3.9l-1,0.2v-0.2L163,128.6z"/>
		<path class="st0" d="M184.3,128.7c-1.5,0.3-2.3,1.3-2.5,2.3c0.4-0.2,0.7-0.3,1.1-0.3c1.1,0,1.8,0.6,1.8,1.6s-0.9,1.7-2.1,1.7
			c-1.4,0-2.3-0.9-2.3-2.1C180.3,130.3,181.9,128.7,184.3,128.7L184.3,128.7z M182.6,131c-0.4,0-0.6,0.2-0.8,0.3
			c0,0.1-0.1,0.4-0.1,0.8c0,0.6,0.1,1.5,0.9,1.5c0.8,0,0.8-0.7,0.8-1.3C183.3,131.8,183.3,131,182.6,131z"/>
		<path class="st0" d="M177.3,128.7c-1.5,0.3-2.3,1.3-2.5,2.3c0.4-0.2,0.7-0.3,1.1-0.3c1.1,0,1.8,0.6,1.8,1.6s-0.9,1.7-2.1,1.7
			c-1.4,0-2.3-0.9-2.3-2.1C173.3,130.3,174.9,128.7,177.3,128.7L177.3,128.7z M175.6,131c-0.4,0-0.6,0.2-0.8,0.3
			c0,0.1-0.1,0.4-0.1,0.8c0,0.6,0.1,1.5,0.9,1.5c0.8,0,0.8-0.7,0.8-1.3C176.4,131.8,176.3,131,175.6,131z"/>
		<path class="st0" d="M170.3,128.7c-1.5,0.3-2.3,1.3-2.5,2.3c0.4-0.2,0.7-0.3,1.1-0.3c1.1,0,1.8,0.6,1.8,1.6s-0.9,1.7-2.1,1.7
			c-1.4,0-2.3-0.9-2.3-2.1C166.3,130.3,167.9,128.7,170.3,128.7L170.3,128.7z M168.5,131c-0.4,0-0.6,0.2-0.8,0.3
			c0,0.1-0.1,0.4-0.1,0.8c0,0.6,0.1,1.5,0.9,1.5s0.8-0.7,0.8-1.3C169.3,131.8,169.3,131,168.5,131z"/>
		<path class="st0" d="M124.4,84.2c0.5,0.2,1.2,0.5,1.7,0.8c-0.1,0.1-0.1,0.3-0.2,0.6c-0.1,0.5,0,1-0.1,1.7c-0.3,2-1.9,3.3-3.7,3
			c-1.8-0.3-2.9-2.1-2.5-4.2c0.2-1,0.7-1.6,0.7-1.8c0-0.1,0-0.4,0-0.4l1.7,0.2c0,0-1.7,1.1-1.9,2c-0.2,1.4,0.7,2.5,2.2,2.7
			c1.5,0.3,2.9-0.6,3.1-2C125.6,86,124.4,84.2,124.4,84.2z"/>
		<path class="st0" d="M140.2,59.2l-3.6,3.8c0,0,0.2-1.1-0.1-1.4l-2.8-2.7c-0.4-0.4-1.4-0.1-1.4-0.1l2.3-2.4c0,0-0.3,1.1,0.1,1.5
			l2.9,2.8c0.3,0.2,0.4,0.2,0.7,0l0.9-0.9c0.5-0.5,0.5-2.2,0.5-2.2L140.2,59.2z"/>
		<path class="st0" d="M137.3,53.8l2.4-1.9c0,0-0.3,1,0,1.4l2.4,3c0.3,0.4,1.4,0.3,1.4,0.3l-2.4,1.9c0,0,0.3-1,0-1.3l-2.4-3
			C138.3,53.7,137.3,53.8,137.3,53.8z"/>
		<path class="st0" d="M145.3,53.8c0.3,0.5,1.4,0.5,1.4,0.5l-2,1.2c0,0,0.4-0.9,0.2-1.3l-2.3-3.8c-0.3,0-1-0.1-1-0.1l1.7-1l5.5,1.5
			l-1.5-2.5c-0.4-0.6-1.5-0.5-1.5-0.5l2.1-1.3c0,0-0.5,0.9-0.3,1.2l2.7,4.4l-0.5,0.3l-6.5-1.7L145.3,53.8z"/>
		<path class="st0" d="M180.6,45.5c0,0,0.9,1.7,1.7,1.8c0.6,0.1,1.2-0.2,1.3-0.7c0.3-1.4-2.8-2-2.4-3.9c0.2-0.9,1.1-1.4,2.3-1.1
			c0.7,0.2,1.2,0.5,1.4,0.6c0.1,0,0.1,0,0.2-0.1h0.2l-0.1,1.6c0,0-0.9-1.5-1.7-1.7c-0.5-0.1-1,0.1-1.1,0.5c-0.2,0.9,1.4,1.4,2.2,2.7
			c0.3,0.5,0.4,0.9,0.3,1.4c-0.2,1-1.3,1.6-2.4,1.3c-0.8-0.2-1.4-0.6-1.6-0.6c-0.1,0-0.2,0-0.2,0.1l-0.2-0.1L180.6,45.5z"/>
		<path class="st0" d="M188.4,43.1l2.9,1c0,0-1,0.3-1.2,0.8l-1.2,3.6c-0.2,0.5,0.5,1.3,0.5,1.3l-2.9-1c0,0,1-0.3,1.1-0.7l1.2-3.7
			C189,43.9,188.4,43.1,188.4,43.1z"/>
		<path class="st0" d="M197.3,51.4l-0.7,1.3c-0.8,0-1.8-0.2-2.5-0.6c-2.2-1.1-2.6-2.9-1.8-4.5s2.7-2.1,4.5-1.2
			c0.9,0.5,1.4,1.1,1.7,1.3c0.1,0.1,0.2,0.1,0.3,0l0.2,0.1l-0.8,1.6l-0.3-0.2c0.2-1-0.2-1.9-1.1-2.3c-1.2-0.6-2.6-0.1-3.3,1.3
			c-0.7,1.4-0.4,2.9,0.8,3.5c0.3,0.2,0.7,0.3,1,0.2l0.6-1.2c0.2-0.4-0.6-1.4-0.6-1.4l2.9,1.5C198.3,50.8,197.5,51,197.3,51.4z"/>
		<path class="st0" d="M201.8,49.4l2.5,1.8c0,0-1.1,0-1.4,0.4l-2.2,3.2c-0.3,0.4,0.1,1.4,0.1,1.4l-2.5-1.8c0,0,1,0,1.3-0.4l2.2-3.2
			C202.1,50.4,201.8,49.4,201.8,49.4z"/>
		<path class="st0" d="M210.8,66.3l-3.3-4c0,0,1.1,0.4,1.4,0.1l3-2.4c0.4-0.4,0.2-1.4,0.2-1.4l2.1,2.6c0,0-1.1-0.4-1.5-0.1l-3.1,2.5
			c-0.3,0.2-0.3,0.4,0,0.7l0.8,1c0.4,0.5,2.1,0.7,2.1,0.7L210.8,66.3z"/>
		<path class="st0" d="M206.5,61.1l-3.8-3.5c0,0,1.1,0.2,1.4-0.1l2.6-2.9c0.4-0.4,0-1.4,0-1.4l2.4,2.2c0,0-1.1-0.2-1.5,0.1l-2.7,2.9
			c-0.2,0.3-0.2,0.4,0.1,0.7l0.9,0.8c0.5,0.4,2.2,0.4,2.2,0.4L206.5,61.1z"/>
		<path class="st0" d="M215.9,65.1c0.4-0.6,0.5-1.5,0.5-1.5l1.7,2.9c0,0-1.1-0.6-1.5-0.1l-1.9,2.8l3.7-0.3c0.4-0.1,0.4-1.3,0.4-1.3
			l1.3,2.1c0,0-1-0.4-1.8-0.3l-5.7,0.5L215.9,65.1z"/>
		<path class="st0" d="M220.1,73L220.1,73l-3.3,0.9c-0.6,0.2-1,1.2-1,1.2l-0.7-2c0,0,0.8,0.5,1.6,0.3l3.4-1c0.5-0.1,0.8-1,0.8-1
			l0.7,1.9l-3.2,3.2l4.4,0.3l0.7,2c0,0-0.6-0.6-1.3-0.3l-3.3,1.4c-0.8,0.3-1,1.3-1,1.3l-1-2.9c0,0,0.7,0.7,1.3,0.5
			c0.1-0.1,0.3-0.1,0.4-0.2l3.2-1.4l0,0l-5.4-0.4l-0.1-0.2L220.1,73z"/>
		<path class="st0" d="M220.7,94.6c-0.6,0-1.2,0.9-1.2,0.9l0.1-2.3c0,0,0.6,0.8,1,0.8l4.4,0.2c0.2-0.2,0.6-0.8,0.6-0.8l-0.1,2
			l-4.3,3.8l2.9,0.1c0.7,0,1.2-1,1.2-1l-0.1,2.5c0,0-0.5-0.9-0.8-0.9l-5.2-0.2v-0.5l5-4.4L220.7,94.6z"/>
		<path class="st0" d="M224.9,102.9l-0.6,3c0,0-0.4-1-0.9-1.1l-3.8-0.7c-0.5-0.1-1.2,0.7-1.2,0.7l0.6-3c0,0,0.4,0.9,0.9,1l3.8,0.8
			C224.1,103.6,224.9,102.9,224.9,102.9z"/>
		<path class="st0" d="M218.6,119.2l1-1.9l-1.9-1l-0.7,1.4c-0.2,0.5,0.1,1.3,0.1,1.3l-1.7-0.9c0,0,0.9-0.1,1.2-0.8l0.7-1.3l-1.6-0.8
			c-0.4-0.2-0.5-0.2-0.6,0.1l-0.7,1.4c-0.3,0.6,0.2,1.8,0.2,1.8l-1.3-0.8l2.7-5.2c0,0,0,1.3,0.4,1.5l3.4,1.8
			c0.5,0.2,1.4-0.3,1.4-0.3l-2.4,4.8l-1.3-0.6C217.4,119.8,218.4,119.6,218.6,119.2z"/>
		<path class="st0" d="M208.6,126.9c0,0-1.9-0.1-2.5,0.4c-0.5,0.5-0.5,1.1-0.1,1.5c1,1,3.2-1.2,4.5,0.1c0.7,0.7,0.6,1.7-0.3,2.5
			c-0.5,0.5-1.1,0.8-1.2,0.9l-0.2,0.4l-1.2-1c0,0,1.8,0,2.3-0.5c0.4-0.4,0.5-0.9,0.2-1.1c-0.6-0.6-1.9,0.4-3.4,0.4
			c-0.6,0-1-0.2-1.3-0.5c-0.7-0.7-0.6-1.9,0.2-2.7c0.5-0.6,1.3-0.8,1.4-1c0.1-0.1,0.1-0.1,0-0.3l0.2-0.2L208.6,126.9z"/>
		<path class="st0" d="M206.6,134.7l-2.4,1.9c0,0,0.3-1,0-1.4l-2.4-3c-0.3-0.4-1.4-0.3-1.4-0.3l2.4-1.9c0,0-0.3,1,0,1.3l2.4,3.1
			C205.5,134.7,206.6,134.7,206.6,134.7z"/>
		<path class="st0" d="M180,146.6l-3.1,0.3c0,0,0.8-0.7,0.8-1.2l-0.4-3.8c0-0.5-1-1-1-1l3.1-0.3c0,0-0.8,0.7-0.7,1.1l0.4,3.9
			C179.1,146.1,180,146.6,180,146.6z"/>
		<path class="st0" d="M173.9,142.7c0,0-1.3-1.5-2-1.5c-0.6,0-1.1,0.4-1.1,0.9c0,1.4,3.1,1.4,3.1,3.4c0,0.9-0.8,1.6-2,1.6
			c-0.7,0-1.3-0.3-1.5-0.3c-0.1,0-0.4,0.1-0.4,0.1l-0.2-1.6c0,0,1.2,1.3,2,1.3c0.5,0,1-0.3,1-0.7c0-0.9-1.6-1.1-2.7-2.2
			c-0.4-0.4-0.5-0.8-0.5-1.3c0-1,0.9-1.8,2.1-1.8c0.8,0,1.5,0.3,1.7,0.3c0.1,0,0.5-0.1,0.5-0.1V142.7z"/>
		<path class="st0" d="M157,140.6l0.4-1.4c0.8-0.1,1.8-0.1,2.6,0.1c2.4,0.6,3.1,2.3,2.7,4.1c-0.5,1.7-2.2,2.6-4.2,2
			c-1-0.3-1.6-0.8-1.9-0.9c-0.1,0-0.5,0-0.5,0l0.5-1.7c0,0,0.9,1.9,1.9,2.1c1.3,0.4,2.5-0.4,2.9-2c0.4-1.5-0.2-2.9-1.5-3.3
			c-0.4-0.1-0.8-0.1-1.1,0l-0.4,1.3c-0.2,0.8,0.9,1.3,0.9,1.3l-3.1-0.8C156.1,141.3,156.9,141,157,140.6z"/>
		<path class="st0" d="M137.9,127.8l-1.2,1.2l2.3,2.2l1.2-1.3c0.4-0.4,0.1-1.4,0.1-1.4l2.3,2.1c0,0-1.1-0.2-1.4,0.2l-2.7,2.8
			c-0.3,0.4-0.1,1.4-0.1,1.4l-2.3-2.2c0,0,1,0.2,1.4-0.2l1.1-1.1l-2.3-2.2l-1,1.1c-0.4,0.4-0.1,1.4-0.1,1.4l-2.2-2.1
			c0,0,1,0.2,1.4-0.2l2.7-2.8c0.3-0.4,0.1-1.4,0.1-1.4l2.2,2.1C139.3,127.5,138.3,127.4,137.9,127.8z"/>
		<path class="st0" d="M121.2,103.7L121.2,103.7l3.5-0.2c0.6,0,1.2-1,1.2-1l0.3,2.1c0,0-0.7-0.7-1.5-0.6l-3.5,0.3
			c-0.5,0-1,0.8-1,0.8l-0.3-2l3.8-2.4l-4.3-1.3l-0.3-2.1c0,0,0.5,0.7,1.2,0.5l3.5-0.7c0.8-0.2,1.2-1,1.2-1l0.4,3
			c0,0-0.5-0.9-1.1-0.8c-0.2,0-0.3,0.1-0.4,0.1l-3.4,0.7l0,0l5.2,1.5v0.2L121.2,103.7z"/>
		<path class="st0" d="M223.9,86.3c0.7-0.4,1.1-1.2,1.1-1.2l0.3,3.4c0,0-0.7-1-1.3-0.7l-2.6,1.5l3.2,1.5c0.3,0.1,0.9-0.9,0.9-0.9
			l0.2,2.5c0,0-0.7-0.8-1.5-1l-5-2.2L223.9,86.3z"/>
		<path class="st0" d="M222.4,108.2c0.8-0.1,1.5-0.7,1.5-0.7l-1,3.2c0,0-0.3-1.2-0.9-1.2l-3,0.4l2.4,2.6c0.3,0.2,1.1-0.5,1.1-0.5
			l-0.7,2.4c0,0-0.4-1-1-1.5L217,109L222.4,108.2z"/>
		<path class="st0" d="M123.5,112.1c-0.6,0.5-0.8,1.4-0.8,1.4l-1.1-3.2c0,0,1,0.8,1.4,0.4l2.2-2.1l-3.4-0.7c-0.4,0-0.6,1.1-0.6,1.1
			l-0.8-2.3c0,0,0.9,0.6,1.7,0.7l5.4,0.9L123.5,112.1z"/>
		<path class="st0" d="M144.9,133.4c0.3-0.4-0.3-1.5-0.3-1.5l2.9,2c0,0-1.2-0.1-1.5,0.3l-2.7,3.9l0.9,0.7c0.6,0.4,1.8-0.1,1.8-0.1
			l-1,1.2l-5.1-3.5l0.7-1.4c0,0-0.1,1.3,0.5,1.8l0.9,0.7L144.9,133.4z"/>
		<path class="st0" d="M183.1,140.9c-0.1-0.5-1.3-0.8-1.3-0.8l3.4-0.8c0,0-0.9,0.8-0.8,1.3l1.1,4.5l1.1-0.3c0.7-0.2,1.1-1.4,1.1-1.4
			l0.2,1.5l-6,1.4l-0.6-1.5c0,0,0.9,1,1.7,0.8l1.1-0.3L183.1,140.9z"/>
		<path class="st0" d="M196.5,135.6c-0.3-0.4-1.5-0.4-1.5-0.4l3-1.8c0,0-0.6,1.1-0.4,1.5l2.4,4.1l1-0.6c0.6-0.4,0.7-1.7,0.7-1.7
			l0.7,1.4l-5.3,3.1l-1-1.2c0,0,1.2,0.6,1.8,0.3l1-0.6L196.5,135.6z"/>
		<path class="st0" d="M220.6,83.4c0-0.5,0.4-0.9,1-0.9c0.5,0,0.9,0.4,0.9,1c0,0.5-0.4,0.9-1,0.9C221,84.4,220.6,84,220.6,83.4z"/>
		<path class="st0" d="M165.1,143.4c0-0.5,0.4-0.9,1-0.9c0.5,0,0.9,0.4,0.9,1c0,0.5-0.4,0.9-1,0.9
			C165.5,144.3,165.1,143.9,165.1,143.4z"/>
		<path class="st0" d="M121.3,93.6c0-0.5,0.4-0.9,1-0.9c0.5,0,0.9,0.4,0.9,1c0,0.5-0.4,0.9-1,0.9C121.7,94.6,121.3,94.1,121.3,93.6z
			"/>
		<path class="st0" d="M129.9,66.4c-1.2-0.9-1.5-2.1-0.8-3.1c0.9-1.2,2.5-1,3.8,0c1.1,0.8,1.7,2,0.9,3.1
			C132.9,67.4,131.4,67.5,129.9,66.4z M129.4,67.8c1.3,1,3.2,0.7,4.5-1.1c1.4-1.9,0.9-3.9-0.5-4.9c-1.5-1.1-3.3-0.7-4.5,1
			C127.6,64.6,127.8,66.7,129.4,67.8z"/>
		<path class="st0" d="M154.7,47.7l-1.9,0.6l0.1-2.8L154.7,47.7z M155.9,46.9l1.7-0.6c0.7-0.3,1.7,0,1.7,0l-1.3-1.5
			c0,0-0.1,0.8-0.6,1l-1.8,0.7l-1.6-1.9l2.6-0.9C157,43.6,158,44,158,44l-1.1-1l-5.5,1.9c0,0,0.7,0.2,0.6,1.1l-0.1,4.1
			c-0.1,0.7-0.5,1.5-0.5,1.5l2.1-0.8c0,0-0.9-0.4-0.9-0.8l0.1-1.2L155,48l1.3,1.6l5.1-1.9l-1.1-1.2c0,0,0.4,0.9-0.2,1.1l-2.7,1.1
			L155.9,46.9z"/>
		<path class="st0" d="M128.6,73.8c0.4,0.2,1.4-0.5,1.4-0.5l-1.4,3.1c0,0-0.1-1.1-0.6-1.4l-3.5-1.6c-0.4-0.2-1.4,0.4-1.4,0.4
			c0.2-0.5,0.3-0.8,0.5-1.2c0.2-0.5,0.5-1.2,0.6-1.5c0.6-1.3,1.1-1.9,1.7-2.2c0.4-0.2,0.8-0.1,1.2,0c0.7,0.3,1,1,0.8,2
			c0.8-0.4,1.6-0.3,2.5-0.7c0.5-0.2,1.4-0.8,1.4-0.8c-0.1,0.2-0.1,0.3-0.2,0.5c-0.5,1.1-0.9,1.5-1.5,1.7c-0.6,0.2-1.8,0.3-2.6,0.7
			l-0.3,0.7L128.6,73.8z M126.9,73l0.2-0.3c0.5-1.1,0.5-1.8-0.5-2.3c-0.9-0.4-1.6,0.1-2,1l-0.2,0.5L126.9,73z"/>
		<path class="st0" d="M125,81.2l0.8,0.7c0.4,0.3,1.2-0.6,1.2-0.6l-0.8,2.5c0,0-0.2-1-0.7-1.4l-4.6-3.9l0,0l6.1-0.9
			c0.6-0.1,1.3-0.7,1.3-0.7l-0.9,3.1c0,0-0.2-1.2-0.7-1.1l-1.1,0.2L125,81.2z M123.1,79.6l1.7,1.4l0.5-1.7L123.1,79.6z"/>
		<path class="st0" d="M129.6,116.2c0.4-0.2,0.4-1.4,0.4-1.4l1.6,3c0,0-0.9-0.6-1.4-0.4l-3.4,1.8c-0.4,0.2-0.5,1.4-0.5,1.4
			c-0.3-0.4-0.4-0.7-0.7-1.1c-0.3-0.5-0.6-1.1-0.8-1.4c-0.7-1.3-0.9-2-0.7-2.7c0.1-0.4,0.4-0.7,0.8-0.9c0.7-0.3,1.4-0.1,2.1,0.5
			c0.2-0.8,0.7-1.5,1-2.4c0.2-0.5,0.2-1.6,0.2-1.6c0.1,0.2,0.2,0.3,0.3,0.5c0.6,1.1,0.6,1.6,0.5,2.2c-0.2,0.7-0.8,1.6-1,2.4l0.4,0.7
			L129.6,116.2z M128,117l-0.2-0.3c-0.6-1-1.2-1.5-2.1-1c-0.9,0.5-0.9,1.3-0.4,2.2l0.2,0.4L128,117z"/>
		<path class="st0" d="M129.1,125.2c-1.2-1.6-1-3.5,0.4-4.6c1.4-1,3.4-0.9,4.8,1c1.3,1.8,1,3.7-0.4,4.7
			C132.4,127.4,130.4,127,129.1,125.2z M133.9,121.7c-0.8-1.1-2.1-0.9-3.2-0.1c-1.3,0.9-2,2.4-1.1,3.6c0.7,1,2,1.1,3.2,0.2
			C134.2,124.3,134.7,122.8,133.9,121.7z"/>
		<path class="st0" d="M149.9,142.3c-1.8-0.9-2.6-2.6-1.8-4.3c0.7-1.6,2.6-2.4,4.7-1.4c2,0.9,2.6,2.8,1.9,4.3
			C153.8,142.6,151.8,143.2,149.9,142.3z M152.3,136.9c-1.2-0.6-2.3,0.2-2.8,1.4c-0.7,1.4-0.6,3.1,0.8,3.7c1.1,0.5,2.2,0,2.9-1.3
			C153.9,139,153.6,137.4,152.3,136.9z"/>
		<path class="st0" d="M211.7,121.8c-0.4-0.3-1.5,0.2-1.5,0.2l2-2.7c0,0-0.2,1.1,0.3,1.5l3.1,2.3c0.4,0.3,1.5-0.1,1.5-0.1
			c-0.3,0.4-0.5,0.7-0.7,1c-0.3,0.5-0.7,1-0.9,1.3c-0.9,1.1-1.5,1.7-2.1,1.7c-0.4,0.1-0.8,0-1.2-0.3c-0.6-0.4-0.7-1.2-0.4-2.1
			c-0.8,0.2-1.6,0-2.6,0.1c-0.6,0.1-1.5,0.5-1.5,0.5c0.1-0.2,0.2-0.3,0.4-0.5c0.7-1,1.2-1.3,1.8-1.3c0.7-0.1,1.8,0.1,2.6-0.1
			l0.5-0.6L211.7,121.8z M213.2,122.9l-0.2,0.3c-0.7,0.9-0.8,1.7,0,2.3c0.8,0.6,1.6,0.2,2.2-0.5l0.3-0.4L213.2,122.9z"/>
		<path class="st0" d="M192.3,138.7v-1.1c0-0.5-1.2-0.6-1.2-0.6l2.5-1c0,0-0.6,0.8-0.6,1.4l-0.2,6.1l0,0l-4.5-4.2
			c-0.5-0.4-1.3-0.6-1.3-0.6l3-1.2c0,0-0.8,0.9-0.4,1.2l0.8,0.7L192.3,138.7z M192.2,141.3v-2.1l-1.6,0.6L192.2,141.3z"/>
		<path class="st0" d="M173,54.6c-0.3-0.7-1-1.2-1-1.2l3.3,0.2c0,0-1.1,0.6-0.9,1.1l1.1,2.8l1.9-2.8c0.2-0.3-0.7-1-0.7-1l2.4,0.2
			c0,0-0.9,0.6-1.2,1.3l-2.9,4.4L173,54.6z"/>
		<path class="st0" d="M146.2,64.5c-0.7-0.3-1.5-0.3-1.5-0.3l2.6-2c0,0-0.5,1.2,0.1,1.4L150,65l-0.5-3.4c-0.1-0.3-1.2-0.2-1.2-0.2
			l1.9-1.5c0,0-0.3,1,0,1.8l0.9,5.2L146.2,64.5z"/>
		<path class="st0" d="M196.5,62.7c0.2-0.7,0-1.6,0-1.6l2.4,2.2c0,0-1.2-0.3-1.4,0.3l-0.9,3l3.3-1.2c0.3-0.1,0-1.2,0-1.2l1.8,1.6
			c0,0-1-0.1-1.8,0.2l-5,1.7L196.5,62.7z"/>
		<path class="st0" d="M156.5,62.1c0.2,0.4,1.4,0.5,1.4,0.5l-3.1,1.4c0,0,0.7-1,0.5-1.4l-2-4.2l-1,0.5c-0.7,0.3-0.8,1.6-0.8,1.6
			l-0.5-1.4l5.4-2.5l0.8,1.3c0,0-1.1-0.7-1.7-0.4l-1,0.5L156.5,62.1z"/>
		<path class="st0" d="M181.2,55.6L181.2,55.6l-1.2,3.1c-0.2,0.6,0.4,1.5,0.4,1.5l-2-0.6c0,0,0.9-0.3,1.2-1.1l1.2-3.2
			c0.2-0.5-0.3-1.2-0.3-1.2l1.9,0.6L183,59l2.8-3.3l1.9,0.6c0,0-0.8,0.2-1,0.8l-0.8,3.4c-0.2,0.8,0.4,1.5,0.4,1.5l-2.8-0.9
			c0,0,1-0.1,1.1-0.7c0-0.1,0.1-0.3,0.1-0.4l0.8-3.3l0,0l-3.4,4l-0.2-0.1L181.2,55.6z"/>
		<path class="st0" d="M204.4,69.9l-1.3-1.6l-1.7,1.3l0.9,1.2c0.3,0.4,1.2,0.4,1.2,0.4l-1.5,1.2c0,0,0.2-0.8-0.2-1.4l-0.9-1.1
			l-1.3,1c-0.3,0.2-0.3,0.4-0.2,0.6l1,1.2c0.4,0.5,1.6,0.5,1.6,0.5l-1.2,0.8l-3.5-4.5c0,0,1.2,0.5,1.5,0.2l3-2.3
			c0.4-0.3,0.3-1.4,0.3-1.4l3.2,4.1l-1,0.9C204.3,71.2,204.7,70.3,204.4,69.9z"/>
		<path class="st0" d="M167.6,58.6c0,0.5,1.1,0.9,1.1,0.9l-3.3,0.3c0,0,0.9-0.6,0.9-1.2l-0.4-3.6c0-0.4-1.1-1-1.1-1
			c0.5-0.1,0.8-0.1,1.2-0.2c0.5-0.1,1.2-0.2,1.5-0.2c1.4-0.1,2.1,0,2.7,0.4c0.3,0.3,0.5,0.6,0.6,1c0.1,0.7-0.4,1.3-1.2,1.7
			c0.7,0.5,1.1,1.2,1.8,1.8c0.4,0.3,1.3,0.8,1.3,0.8c-0.2,0-0.3,0-0.6,0.1c-1.2,0.1-1.7,0-2.1-0.4c-0.5-0.4-1.2-1.3-1.8-1.8
			l-0.7,0.1L167.6,58.6z M167.4,56.8h0.4c1.1-0.1,1.8-0.5,1.6-1.5c-0.1-1-0.9-1.3-1.8-1.2l-0.5,0.1L167.4,56.8z"/>
		<path class="st0" d="M137.5,73.1c0.3-0.4,0.6-0.9,0.8-1.3c0.2-0.4,0.4-0.7,0.7-1.1c1.1-1.5,1.8-2.1,2.8-2.3c0.7-0.1,1.4,0,2.1,0.5
			c0.7,0.5,1.1,1.2,1.2,1.9c0.1,0.7,0.1,1.6-1.1,3.2l-1.7,2.4c0,0,0.1-1-0.3-1.3l-3-2.1C138.5,72.7,137.5,73.1,137.5,73.1z
			 M142.7,74.1c0.5,0.4,0.6,0.3,1.1-0.3c1.2-1.7,0.4-3-0.6-3.7c-0.6-0.5-1.4-0.6-2-0.5s-1.2,0.5-1.7,1.3c-0.1,0.2-0.3,0.4-0.4,0.6
			L142.7,74.1z"/>
		<path class="st0" d="M138.2,81.1l0.7,0.7c0.3,0.3,1.2-0.5,1.2-0.5l-1,2.4c0,0-0.1-1-0.6-1.4l-4.1-4.3l0,0l6-0.3
			c0.6,0,1.4-0.5,1.4-0.5l-1.2,2.9c0,0-0.1-1.1-0.6-1.1l-1,0.1L138.2,81.1z M136.5,79.3l1.5,1.5l0.7-1.6L136.5,79.3z"/>
		<g>
			<path class="st0" d="M192.9,58.6c1.7,0.9,2.4,2.7,1.5,4.2c-0.8,1.5-2.7,2.2-4.6,1.1c-1.9-1-2.3-2.9-1.6-4.2
				C189.1,58.1,191,57.6,192.9,58.6z M190.2,63.7c1.1,0.6,2.2-0.1,2.9-1.2c0.7-1.3,0.7-2.9-0.5-3.6c-1.1-0.6-2.2-0.1-2.9,1.1
				C188.8,61.6,189,63.1,190.2,63.7z"/>
			<path class="st0" d="M193.1,68.3c-2-1.6-1.3-1.4-1.9-3.1c-0.5-1.7-0.2-4.2-0.6-4.4c-0.4-0.3,0.9-0.4,1.3,3.3
				C192.4,67.8,193.1,68.3,193.1,68.3z"/>
		</g>
		<path class="st0" d="M143.8,142.7c-16.7-9.9-27.9-28-27.9-48.8c0-31.2,25.4-56.6,56.6-56.6s56.6,25.4,56.6,56.6
			s-25.4,56.6-56.6,56.6c-10.3,0-20-2.8-28.4-7.6l-0.9-0.5l-0.6,0.9l0.9,0.6c8.5,5,18.4,7.8,29,7.8c31.9,0,57.9-26,57.9-57.9
			C230.3,62,204.4,36,172.5,36s-57.9,26-57.9,57.9c0,21.2,11.5,39.8,28.5,49.8l0.7,0.4l0.6-1L143.8,142.7z"/>
		<path class="st0" d="M149.8,130.6c-12.3-7.6-20.6-21.3-20.6-36.7c0-20.1,13.8-37,32.4-41.8l0.3-1c-19.3,4.7-33.6,22.1-33.6,42.8
			c0,15.8,8.4,29.7,21,37.5l0.7,0.4l0.4-0.7L149.8,130.6z"/>
		<path class="st0" d="M149.7,131.6c6.6,4,14.4,6.3,22.7,6.3c24.3,0,44.1-19.8,44.1-44.1s-19.8-44.1-44.1-44.1
			c-2.8,0-5.6,0.3-8.3,0.8l-0.1,0.9c2.7-0.5,5.5-0.8,8.4-0.8c23.8,0,43.2,19.4,43.2,43.2S196.2,137,172.4,137
			c-8.2,0-15.8-2.3-22.3-6.2l-0.7-0.4l-0.7,0.6L149.7,131.6z"/>
		<g>
			<path class="st0" d="M172,46.4c-0.4,0-0.8-0.1-1.2-0.3c-0.3-0.2-0.6-0.5-0.8-0.8"/>
			<path class="st0" d="M172.7,42.9l1.5-1.4c0.3,0.2,0.6,0.6,0.7,1c0.2,0.4,0.2,0.8,0.2,1.1l-2,0.2l1.8,1c-0.1,0.4-0.4,0.7-0.7,1
				c-0.3,0.3-0.6,0.5-1,0.6l-0.8-1.9l-0.4,1.9c-0.4,0-0.8-0.1-1.2-0.3c-0.3-0.2-0.6-0.5-0.8-0.8l1.6-1.4l-2,0.3
				c-0.1-0.4-0.1-0.8,0-1.2c0.1-0.4,0.3-0.7,0.5-1l1.7,1l-0.9-1.7c0.3-0.2,0.7-0.4,1.1-0.4c0.4,0,0.8,0,1.1,0.1L172.7,42.9z"/>
		</g>
		<g>
			<g>
				<path class="st0" d="M193.7,81.9c-0.4,0-0.9-0.3-1-0.8s0.3-0.8,0.3-0.8s0,0,0,0.1l0.1,0.1l0,0c0.1,0.1,0.2,0,0.3,0
					c0.3,0,0.3-0.1,0.3-0.4c0-0.2-0.2-0.5-0.5-0.4c-0.2,0.1-0.6,0.1-0.8,0c-0.1,0-0.1-0.3,0-0.5c0-0.1,0.1-0.3,0.1-0.4
					c0-0.2-0.2-0.3-0.4-0.3c-0.2,0-0.4,0.2-0.3,0.3c0,0.2,0.2,0.3,0.3,0.5c0.2,0.2,0.1,0.3,0,0.4c0,0.1-0.5,0.2-0.5,0.2l0,0h-0.1
					c-0.3,0-0.5,0.1-0.4,0.4c0,0.2,0.2,0.4,0.4,0.4c0.2,0,0.3-0.1,0.4-0.2c0,0,0.4,0.3,0.3,0.7c-0.1,0.4-0.1,0.7-0.8,0.9
					c-0.6,0.2-0.9-0.2-0.9-0.2s-0.2,0.5-0.7,0.4c-0.8-0.1-0.9-1.1-0.9-1.1s0.3,0,0.5-0.4c0.1-0.4-0.1-0.6-0.5-0.6
					c-0.2,0-0.5,0.3-0.9,0.2c-0.3-0.1,0.2-0.8-0.3-1c-0.4-0.2-0.6,0.3-0.6,0.3s0.6,0.6,1.4,1.8c0.6,0.9,1.5,2,1.5,2l-0.5,0.3
					c0,0-0.6-1-1.6-2.3c-0.8-1.1-1.5-1.8-1.5-1.8s0-0.1,0.2-0.3c0.3-0.3,0.7-0.7,1.3-0.5c0.5,0.2,0.3,1.1,0.3,1.1s0.3-0.3,0.8-0.3
					c0.5,0.1,1,0.6,0.9,1c-0.1,0.7-0.5,0.8-0.5,0.8s-0.1,0.3,0.4,0.2c0.3,0,0.5-0.5,0.5-0.5s0.8,0.7,1.2,0.2c0,0,0.1-0.1,0.1-0.2
					c-0.1,0-0.1,0-0.2,0c-0.5,0-0.9-0.4-0.9-0.9s0.4-0.9,0.9-0.9c0.2,0,0.1,0,0.3,0l0,0c-0.2-0.1-0.5-0.3-0.5-0.7
					c0-0.4,0.5-0.9,0.9-0.9c0.4,0,1,0.4,1,0.8c0,0.3-0.1,0.5-0.3,0.6l0,0c0.1-0.1,0.3-0.2,0.5-0.2c0.5,0,0.9,0.4,0.9,0.9
					s-0.4,0.9-0.9,0.9h-0.1l0,0c0.2,0.2,0.4,0.2,0.6,0.3c0.6,0.1,0.7-0.4,0.7-0.4s0.3,0.3,0.6,0.2c0.5-0.2,0.4-0.5,0.4-0.5
					s-0.4,0.1-0.8-0.5c-0.3-0.4-0.2-0.8,0.2-1.1c0.4-0.3,1-0.1,1-0.1s-0.5-0.6-0.1-1.1c0.4-0.4,1-0.2,1.4-0.1
					c0.3,0.1,0.5,0.2,0.5,0.2s-0.4,0.7-0.7,2.1c-0.4,1.8-0.6,2.7-0.6,2.7l-0.5-0.1c0,0,0.3-1.5,0.6-2.7c0.3-1.3,0.6-1.7,0.6-1.7
					s-0.5-0.4-0.8-0.1c-0.3,0.4,0.4,0.7,0.1,1c-0.2,0.3-0.7,0-0.9,0.1c-0.3,0.2-0.3,0.3-0.1,0.6c0.2,0.3,0.6,0.2,0.6,0.2
					s0.3,1-0.4,1.4c-0.5,0.3-0.9-0.1-0.9-0.1S194.5,81.9,193.7,81.9z"/>
				<path class="st0" d="M189.4,83.6c-0.1-0.5,1.4-1.1,3.3-1.3c1.9-0.2,3.5,0,3.5,0.5c0.1,0.5-1.4,1.1-3.3,1.3
					C191.1,84.3,189.5,84.1,189.4,83.6z M192.6,83.6c1.2-0.1,1.9-0.3,1.9-0.6c0-0.2-1-0.3-2.1-0.1c-1.2,0.1-2.1,0.4-2,0.6
					C190.3,83.6,191.5,83.8,192.6,83.6z"/>
			</g>
			<g>
				<path class="st0" d="M205.5,80.2c-0.4,0-0.9-0.3-1-0.8s0.3-0.8,0.3-0.8s0,0,0,0.1l0.1,0.1l0,0c0.1,0.1,0.2,0,0.3,0
					c0.3,0,0.3-0.1,0.3-0.4c0-0.2-0.2-0.5-0.5-0.4c-0.2,0.1-0.6,0.1-0.8,0c-0.1,0-0.1-0.3,0-0.5c0-0.1,0.1-0.3,0.1-0.4
					c0-0.2-0.2-0.3-0.4-0.3s-0.4,0.2-0.3,0.3c0,0.2,0.2,0.3,0.3,0.5c0.2,0.2,0.1,0.3,0,0.4c0,0.1-0.5,0.2-0.5,0.2l0,0h-0.1
					c-0.3,0-0.5,0.1-0.4,0.4c0,0.2,0.2,0.4,0.4,0.4s0.3-0.1,0.4-0.2c0,0,0.4,0.3,0.3,0.7c-0.1,0.4-0.1,0.7-0.8,0.9
					c-0.6,0.2-0.9-0.2-0.9-0.2s-0.2,0.5-0.7,0.4c-0.8-0.1-0.9-1.1-0.9-1.1s0.3,0,0.5-0.4c0.1-0.4-0.1-0.6-0.5-0.6
					c-0.2,0-0.5,0.3-0.9,0.2c-0.3-0.1,0.2-0.8-0.3-1c-0.4-0.2-0.6,0.3-0.6,0.3s0.6,0.6,1.4,1.8c0.6,0.9,1.5,2,1.5,2l-0.5,0.3
					c0,0-0.6-1-1.6-2.3c-0.8-1.1-1.5-1.8-1.5-1.8s0-0.1,0.2-0.3c0.3-0.3,0.7-0.7,1.3-0.5c0.5,0.2,0.3,1.1,0.3,1.1s0.3-0.3,0.8-0.3
					c0.5,0.1,1,0.6,0.9,1c-0.1,0.7-0.5,0.8-0.5,0.8s-0.1,0.3,0.4,0.2c0.3,0,0.5-0.5,0.5-0.5s0.8,0.7,1.2,0.2c0,0,0.1-0.1,0.1-0.2
					c-0.1,0-0.1,0-0.2,0c-0.5,0-0.9-0.4-0.9-0.9s0.4-0.9,0.9-0.9c0.2,0,0.1,0,0.3,0l0,0c-0.2-0.1-0.5-0.3-0.5-0.7s0.5-0.9,0.9-0.9
					s1,0.4,1,0.8c0,0.3-0.1,0.5-0.3,0.6l0,0c0.1-0.1,0.3-0.2,0.5-0.2c0.5,0,0.9,0.4,0.9,0.9s-0.4,0.9-0.9,0.9H205l0,0
					c0.2,0.2,0.4,0.2,0.6,0.3c0.6,0.1,0.7-0.4,0.7-0.4s0.3,0.3,0.6,0.2c0.5-0.2,0.4-0.5,0.4-0.5s-0.4,0.1-0.8-0.5
					c-0.3-0.4-0.2-0.8,0.2-1.1s1-0.1,1-0.1s-0.5-0.6-0.1-1.1c0.4-0.4,1-0.2,1.4-0.1c0.3,0.1,0.5,0.2,0.5,0.2s-0.4,0.7-0.7,2.1
					c-0.4,1.8-0.6,2.7-0.6,2.7l-0.5-0.1c0,0,0.3-1.5,0.6-2.7c0.3-1.3,0.6-1.7,0.6-1.7s-0.5-0.4-0.8-0.1c-0.3,0.4,0.4,0.7,0.1,1
					c-0.2,0.3-0.7,0-0.9,0.1c-0.3,0.2-0.3,0.3-0.1,0.6s0.6,0.2,0.6,0.2s0.3,1-0.4,1.4c-0.5,0.3-0.9-0.1-0.9-0.1
					S206.3,80.2,205.5,80.2z"/>
				<path class="st0" d="M201.2,81.9c-0.1-0.5,1.4-1.1,3.3-1.3c1.9-0.2,3.5,0,3.5,0.5c0.1,0.5-1.4,1.1-3.3,1.3
					C202.9,82.6,201.3,82.4,201.2,81.9z M204.4,81.9c1.2-0.1,1.9-0.3,1.9-0.6c0-0.2-1-0.3-2.1-0.1c-1.2,0.1-2.1,0.4-2,0.6
					C202.1,81.9,203.3,82,204.4,81.9z"/>
			</g>
			<g>
				<path class="st0" d="M200.6,88.3c-0.4,0-0.9-0.3-1-0.8c-0.1-0.5,0.3-0.8,0.3-0.8s0,0,0,0.1l0.1,0.1l0,0c0.1,0.1,0.2,0,0.3,0
					c0.3,0,0.3-0.1,0.3-0.4c0-0.2-0.2-0.5-0.5-0.4c-0.2,0.1-0.6,0.1-0.8,0c-0.1,0-0.1-0.3,0-0.5c0-0.1,0.1-0.3,0.1-0.4
					c0-0.2-0.2-0.3-0.4-0.3c-0.2,0-0.4,0.2-0.3,0.3c0,0.2,0.2,0.3,0.3,0.4c0.2,0.2,0.1,0.3,0,0.4c0,0.1-0.5,0.2-0.5,0.2l0,0h-0.1
					c-0.3,0-0.5,0.1-0.4,0.4c0,0.2,0.2,0.4,0.4,0.4c0.2,0,0.3-0.1,0.4-0.2c0,0,0.4,0.3,0.3,0.7s-0.1,0.7-0.8,0.9
					c-0.6,0.2-0.9-0.2-0.9-0.2s-0.2,0.5-0.7,0.4c-0.8-0.1-0.9-1.1-0.9-1.1s0.3,0,0.5-0.4c0.1-0.4-0.1-0.6-0.5-0.6
					c-0.2,0-0.5,0.3-0.9,0.2c-0.3-0.1,0.2-0.8-0.3-1c-0.4-0.2-0.6,0.3-0.6,0.3s0.6,0.6,1.4,1.8c0.6,0.9,1.5,2,1.5,2l-0.5,0.3
					c0,0-0.6-1-1.6-2.3c-0.8-1.1-1.5-1.8-1.5-1.8s0-0.1,0.2-0.3c0.3-0.3,0.7-0.7,1.3-0.5c0.5,0.2,0.3,1.1,0.3,1.1s0.3-0.3,0.8-0.3
					c0.5,0.1,1,0.6,0.9,1c-0.1,0.7-0.5,0.8-0.5,0.8s-0.1,0.3,0.4,0.2c0.3,0,0.5-0.5,0.5-0.5s0.8,0.7,1.2,0.2c0,0,0.1-0.1,0.1-0.2
					c-0.1,0-0.1,0-0.2,0c-0.5,0-0.9-0.4-0.9-0.9s0.4-0.9,0.9-0.9c0.2,0,0.1,0,0.3,0l0,0c-0.2-0.1-0.5-0.3-0.5-0.7s0.5-0.9,0.9-0.9
					s1,0.4,1,0.8c0,0.3-0.1,0.5-0.3,0.6l0,0c0.1-0.1,0.3-0.2,0.5-0.2c0.5,0,0.9,0.4,0.9,0.9s-0.4,0.9-0.9,0.9h-0.1l0,0
					c0.2,0.2,0.4,0.2,0.6,0.3c0.6,0.1,0.7-0.4,0.7-0.4s0.3,0.3,0.6,0.2c0.5-0.2,0.4-0.5,0.4-0.5s-0.4,0.1-0.8-0.5
					c-0.3-0.4-0.2-0.8,0.2-1.1s1-0.1,1-0.1s-0.5-0.6-0.1-1.1c0.4-0.4,1-0.2,1.4-0.1c0.3,0.1,0.5,0.2,0.5,0.2s-0.4,0.7-0.7,2.1
					c-0.4,1.8-0.6,2.7-0.6,2.7l-0.5-0.1c0,0,0.3-1.5,0.6-2.7c0.3-1.3,0.6-1.7,0.6-1.7s-0.5-0.4-0.8-0.1c-0.3,0.4,0.4,0.7,0.1,1
					c-0.2,0.3-0.7,0-0.9,0.1c-0.3,0.2-0.3,0.3-0.1,0.6s0.6,0.2,0.6,0.2s0.3,1-0.4,1.4c-0.5,0.3-0.9-0.1-0.9-0.1
					S201.5,88.3,200.6,88.3z"/>
				<path class="st0" d="M196.4,90c-0.1-0.5,1.4-1.1,3.3-1.3c1.9-0.2,3.5,0,3.5,0.5c0.1,0.5-1.4,1.1-3.3,1.3S196.4,90.4,196.4,90z
					 M199.5,90c1.2-0.1,1.9-0.3,1.9-0.6c0-0.2-1-0.3-2.1-0.1c-1.2,0.1-2.1,0.4-2,0.6C197.3,90,198.4,90.1,199.5,90z"/>
			</g>
		</g>
		<path class="st0" d="M176.4,77.9c-1.5,1.7-0.5,4.2-0.9,6.3c-0.6,1.8-2.5,2.9-3,4.7c-0.1,1-0.3,2.5,0.5,3.3
			c0.1-0.1-0.1-0.2-0.1-0.3c-0.3-2.1,0.4-3.6,2.2-5.4c2.8-3.2-0.5-5.7,2.2-8.1L176.4,77.9z"/>
		<path class="st0" d="M182.9,97.9c1.3,0,2.1-0.2,3.4-0.5c1.2-0.4,2.2-0.7,3.4-1.1c2.5-0.8,3.9-1.4,6.5-1.4h0.3
			c0.7,0,1.4,0.1,2.1,0.3c0.3,0.1,0.8,0.4,1.1,0.6c1.7,1.4,1.8,2.2,3.9,3.5c0.9,0.4,1.8,1.4,2.6,1.5c-0.3-0.3-0.6-0.4-1.3-1.1
			c-1-0.9-2.7-3.1-4.5-4.4c-1-0.6-2.1-0.9-3.2-1c-2.3-0.4-4.9,0.3-6.8,1.1c-2.1,0.7-2.8,0.8-5,1.2c-0.8,0.2-1.4,0.1-2.1-0.1
			c-0.3-2.2-1.1-1.8-0.8-4.5c0.9-3.2,0.5-5.9-0.6-8.4c0.2-0.9,0.3-2.2-0.4-2.9c-0.6-0.6-2.3-0.8-2.6,0.3c0.2,0.9,1.3,0.3,1.9,0.7
			c0.7,0.2,0.6,1,0.5,1.4c-0.2,1.3-1.6,1.9-2.6,2.2c0.4,0.7,1.9,0.3,2.3-0.2c0.6,1.2,0.8,1.3,1,2.8c0.1,2.6-0.6,2.4-1.6,4.1
			c-0.4,0.9-0.4,2,0.3,3.8c-0.2-2.7,0.2-2.8,0.9-4c0,0-0.3,1.1-0.2,2.1c0,1.2,0.7,1.6,0.7,2.7c-0.2,1-0.2,1.3-0.9,2.1
			c-1.2,1.5-3.2,1.4-4.1,5.3c1.5-2.2,1.9-2.8,3.3-3.6C182.2,99.7,182.5,99.1,182.9,97.9z"/>
		<path class="st0" d="M168.5,85c0.7,0.5,0.9,1.1,1.4,1.7c-0.3-0.1-1.9-1.3-2.8-1c-1.3,0.1-3,1.3-4.1,0.1c-0.8-0.3-1.3-1.6-1.4-2.4
			c0.7,1.2,2,2.4,3.6,2.1c0.9-0.2,1.3-0.3,2.1-0.3c0.4,0,1,0,1.4,0.5c-0.5-0.5-1.2-0.9-2.1-0.9c-1.9,0-3.9,0.9-5-1.4
			c1.1,0.8,3.3,0.9,5.2,0.9C167.4,84.3,168.1,84.5,168.5,85z M165.6,81.8c-0.1,0.3-0.5,0.7-0.2,1l0.5-0.7
			C165.8,82,165.7,81.9,165.6,81.8z M166.8,82.5c0.2,0.2,0.3,0.5,0.3,0.7c0.2,0,0.3-0.4,0.5-0.4L166.8,82.5z M167.1,84
			c-0.2-0.5-0.3-1.1-0.9-1.2c-0.6-0.3-1.1,1.1-1.3,0c-0.2-0.7,0.6-1.2-0.2-1.7c-0.6-0.9,0.3-1.2,0-2.2c0-0.7-0.2-1.7,0.9-1.7
			c1.5-0.4,3.1-0.4,4.6,0.1c0.4-0.4,0.5-0.6,0.6-0.8c0,0,0.7-0.1,1.1,0.1c0.5,0.2,1,0.5,1,0.5c-0.4,0.1-1.2,0.1-1.2,0.8
			c0.3,0.7,1-0.3,2.8,0.9c0.1,0.2,0.4,0.3,0.5,0.7c-0.9-0.4-1.3-0.3-2-0.6c-0.6-0.2-0.7-0.2-1.3-0.1c-0.2,0-1.1,0.7-1.1,0.2
			c0,0,0-0.2-0.1-0.7c-0.1-0.4-0.3-0.4-0.7-0.5c-1.9-0.5-2.8-0.3-3.9-0.1c-0.4,0.1-0.6,0.7-0.4,1.1c0.4,0.7,0.5,0.6,0.9,0.6
			c0.3-0.2,0.5-0.7,1-0.7c0.4,0,0.7,0,0.9,0.4v0.2c-0.1-0.3-0.6-0.2-0.8-0.1c-0.1,0.1-0.2,0.2-0.1,0.3c0.1,0.2,0.3,0.1,0.5,0.2
			c-0.2,0.3-1.1,0.4-1.7,0.4c-0.2,0-0.2,0.3-0.3,0.3c-0.2,0.3-0.1,0.5,0,0.8c0.9,1.1,2.4,1.2,3.6,1.9c0.3,0.2,0.6,0.7,0.6,0.9
			c-0.6-0.3-0.7,0.6-0.7,0.8l0.2-0.2c0.2-0.1,0.7-0.3,0.7-0.3c0.3,0.3,0.2,0.8,0.3,1.1c0.1-0.3,0.1-0.7,0.2-1.1
			c0.4,1.4,1.2,3.9-0.8,7c-1,2.1-0.9,2.6-0.8,5.5c-1.4-3-0.3-4.5,0-6.4c0-0.2,0-0.4-0.2-0.6c0.1,0.8-0.1,1.3-0.7,2.1
			c-1,1.2-1.1,2.8-0.6,4c0.5,1.3,0.8,1.9,0.7,3.3c-0.2,1.3-0.6,2.1-0.1,3.9l0,0c-1.1-2.1-0.7-2.8-0.7-4.1c0-1-0.2-2.1-0.8-2.9
			l0.4,0.3c-0.4,2.5-3.7,2.7-2.5,6c0.4,0.7,1.4,2.2,1.4,2.9c-0.7-1.2-1.6-1.3-2.2-2.6c-1.6-0.3-2.9,0.9-4.5,1.4
			c-0.9,0.3-1.8,0.7-3.4-0.6c2.8,1,4.8-0.8,6.6-1.5c1-0.5,0.6-1.2,0.7-1.8c0.3-1.9,2.2-1.9,2.7-3.7c0-1.6-0.2-2.5,0.3-3.6
			c0.5-1,1.2-0.8,1.3-2.1c0.5-1.5-1.8-1.7-1.4-3.6c0.3,0.4,0.8,0.6,1.2,0.8c0.8,0.4,1.6,1,2.2,1.6c-0.1-0.3-0.7-1.2-1-1.5l-0.8-0.6
			c0.1-0.3,0.4-0.5,0.7-0.7c-0.1,0.9,1,1.3,1.4,1.8c0.3-1.2,0-2.5-0.3-3.6c0,0-0.4-0.1-0.7,0.3c-0.3-0.8-0.1-1.3,0-1.9
			c0-0.3-0.3-0.1-0.4-0.1c-0.3,0.2-0.4,0.3-0.4,0.3l-0.1-0.5C167.6,83.2,167.2,83.6,167.1,84"/>
		<path class="st0" d="M180.2,82.7c0.1,0.4-0.1,0.8-0.3,1.1c-0.1,0.2-0.4,0.3-0.6,0.3c0-0.3,0.7-0.7,0.3-1.1l-0.8-0.6
			C179.2,82.1,180.1,82.1,180.2,82.7z"/>
		<path class="st0" d="M167.9,87.5c-0.2,0-0.4,0-0.5-0.1c-0.7-0.3,0.1-0.6,0.1-0.9C167.8,86.7,167.7,87.2,167.9,87.5z"/>
		<path class="st0" d="M170.8,95.2c0,1.4-0.1,2.4-0.4,3.2c-0.3,0.8-0.4,1.1-1,2.1c0.5-1.3,0.7-2.3,0.9-3.7c0.1-1.3,0.1-3.2,0.6-4.3
			l0.5-1.3C170.8,93.3,170.8,94.3,170.8,95.2z"/>
		<path class="st0" d="M153.9,109.7c0.3-0.4,0.6-0.3,0.7-0.4c0.2,0.2,0.2,0.5,0.5,0.7c0.5,0.3,1.3-0.3,1.7-0.5c0,0,1,0.7,1.6,0.7
			s0.8-0.6,1.3-0.6s0.9,0.7,0.9,0.7s0.5,0,3.4-0.5c2.8-0.5,2.1,1.4,2.1,1.4s1.1,0.2,2.2-1c0.9-0.9,1.7-2.2,2-3.4
			c0.2-1.2,0.3-5.9,0.3-5.9s-0.8,2.1-0.9,3.3c-0.1,1.2-0.3,2.6-1.4,4.2c-0.2,0.3-1.1,0.7-1.1,0.7c0.1,0-0.3-0.7-0.6-1
			c-0.5-0.4-0.9-0.4-0.9-0.4s-2.1,1.4-2.9,1.4c-0.8-0.1,0.1-1.4,0.1-1.4s-2.4,0.9-3.6,1.2c-1.2,0.3-1.4-0.3-1.4-0.3
			c-0.6,0.2-1.8,0.7-2.6,0.5c-0.7-0.4-1-0.7-1.3-0.3l-0.7,0.7c-0.7-1.5,1.1-2.1,1.6-2.6l-1.1-0.1c-0.5-0.2-0.7-0.7-0.6-1
			c-0.6,0-1.2,0.3-1.7,0.4c0.1-1.3,1.6-0.7,2.2-1.5c0.2-0.2,0.6-0.4,1.1-0.1c0,0-1.4-0.9-1.3-1.3c0.4-1.3,2.6,0.7,3.2,1
			c-0.2-0.3-0.4-0.4-0.6-0.7c-0.9-2.1-3.4-1.7-4.3,0c0.1,0.2,0.9-0.4,1,0.1c0.2,0.3,0.4,0.5,0.4,0.6c-0.5,0.3-1,0.3-1.4,0.5
			c-1.5,0.5-1.5,2.5-1.5,2.5s1.5-0.3,2-0.5c0.1,0,0.1,0,0.2-0.1c0.2,0.8,0.9,0.2,0.1,1.7c-0.4,0.6,0.4,2.1,0.4,2.1
			S153.5,110.2,153.9,109.7z"/>
		<path class="st0" d="M173.5,98.8c-0.4,0.6-1.7,3-1.8,5.1c-0.4-2,0-3.5,1.6-6.2c2.2-3.3,1-6.4,1.2-7.4
			C176.2,96.3,174.2,97.7,173.5,98.8z"/>
		<path class="st0" d="M166.4,102.2c0.1,0.4,0.3,1.1,0.8,2c0.3,0.6,0.7,1.6,0.3,3.6c-0.4-2.8-0.7-2.8-1.2-3.8c-0.4-0.8-0.7-2-0.5-3
			c0.1-0.3,0.5-1.1,0.8-1.3C166.3,100.1,166.2,101.4,166.4,102.2z"/>
		<path class="st0" d="M172.6,105.9c-0.8,1.1-1.3,1.8-1.8,2.2c0.4-3.2,2.4-3.6,3.2-7.5C174,102.1,173.3,105,172.6,105.9z"/>
		<path class="st0" d="M185.8,110.3c0.4,0.1,0.8,0.2,1.1,0.4c-0.5-0.2-1.6-0.4-1.9-0.4s-0.4,0-0.6,0c-1.4-0.1-3.1-0.5-4.2-0.1
			c-1.8,0.8-3.8,2.3-4.2,3.3c-1,2-3.4,0.3-5,2.3c-0.4-0.5,0.2-1.2,1.1-1.7c0.7-0.3,2.3,0.2,3-0.6c0.4-0.4-0.5-1.3-1.6-0.9
			c-1.4,0.6-1.4,1.3-2.3,1.8c0.1-1,1-2.3,2.4-2.5c0.7-0.2,1.4,0.2,2.2,0.1c0.9-0.6,1.3-0.9,2.6-1.5c0.7-0.4,1.3-0.5,2.2-0.6
			C182.5,109.6,184.1,110.1,185.8,110.3z"/>
		<path class="st0" d="M168.6,87.8c0,0-0.2,0-0.5-0.1c-0.4-0.1-0.9-0.4-1-0.4c-0.2-0.1-0.3-0.1-0.3-0.1s0.1-0.1,0.2-0.1
			c0.1,0,0.7,0.1,1.1,0.3c0.5,0.2,0.7,0.4,0.7,0.4H168.6z"/>
		<path class="st0" d="M180.8,79.5c0,0-0.1,0.2,0.1,0.5c0.1,0.3,0.2,0.6,0.2,0.6s-1.7,0.1-1.6-0.2c0.1-0.2,0.3-0.5,0.2-0.6
			c-0.1-0.2-0.3-0.5-0.3-0.5L180.8,79.5z"/>
		<path class="st0" d="M170.9,84.4c-0.2-0.6-0.3-0.9-1.5-1.5c-1.2-0.6-2.1-0.8-2.5-1c-0.4-0.2-1-0.3-1-0.3c0.1,0.1,2.3,1.3,2.7,1.5
			c0.4,0.2,1,0.4,1.3,0.6c0.2,0.2,0.3,0.2,0.4,0.5c0.1,0.3,0,0.7,0.2,1c0.2,0.4,0.3,0.4,0.3,0.4S171.1,85,170.9,84.4z"/>
		<path class="st0" d="M167.8,80.3c0.6,0,1,0,1.5,0.2s0.7,0.9,1,1.3c0,0-1.2-1.3-2.1-1.2C168,80.6,167.5,80.3,167.8,80.3z"/>
		<path class="st0" d="M167.2,81c0.3-0.1,0.6,0,0.9,0.1c0.3,0.1,0.5,0.4,0.8,0.8l-0.3-0.1c0,0,0.1,0-0.3-0.2
			c-0.5-0.2-0.6-0.2-0.8-0.3C167.3,81.1,167,81,167.2,81z"/>
		<path class="st0" d="M177.8,79.5c0,0-0.8,0.7-0.8,1.9c-0.1,1.2,0.2,2.6,0.4,4c0.2,1.4,0,2.4-0.5,3.3c-0.4,0.7-0.8,1.8-0.8,2.8
			c0,1.3,1.1,2.6,1.1,2.6s-0.9-1.7-0.5-3.2c0.3-1.6,1.2-2.5,1.4-3.6c0.1-1.1,0-2.2-0.4-3.6C177.1,81.8,177.1,80.6,177.8,79.5z"/>
		<path class="st0" d="M176.3,99c0,0,0.9-1.4,0.9-2.6s-0.8-2.5-1-3.7c-0.2-1.3-0.3-1.5,0-2.4c0.3-0.9,1.1-1.4,1.1-1.4
			s-0.6,1.2-0.7,2c0,0.8-0.1,1.2,0.4,2.7s1,2.9,0.6,3.9c-0.3,1-0.8,1.6-1.2,2.1C176.1,100,175.9,100,176.3,99z"/>
		<path class="st0" d="M174,108.4c-0.2,0.1-0.4,0.3-0.7,0.4c-0.2,0.1-0.6,0.2-0.6,0.2s0.3-0.4,1.1-1.4c1.2-1.8,1.1-3.7,1.6-5.5
			c0.3-1.4,1.4-3,1.8-3.7c0.4-0.7,0.1-3.1,0.1-3.1c-0.1,3.9-2.2,3.8-2.7,6.9c-0.1,1.7-0.7,3.6-2.1,5.3c-1.1,1.5-3,3-4.9,3.8
			c2.2,0.4,3.7-0.2,5.6-0.3c0.5,0,1.3,0,1.9,0.2l0,0c0.4,0.2,0.5-0.3,1.7-0.9c0.9-0.4,1.5-0.7,2.2-0.9c1-0.3,1.9-0.5,2.6-0.4
			c-0.1-0.1,3.1-0.1,2.6-0.4c-0.2-0.7-1.3-0.1-1-0.5c-1.2,0.6-1.4,0.1-2.8,0.4c0,0-1.1,0.1-2,0.1c0,0-0.6,0-1-0.2
			c-0.8-0.3-0.7-1.1-0.7-1.1c0-0.4,0-0.7,0.1-1.2c0.1-0.5-0.1-1.4-0.1-1.4S175.7,107.3,174,108.4z"/>
		<path class="st0" d="M200.2,100c0,0-1.7-2-3.5-2.4s-5.2,0.1-7.2,1.1s-2.8,2.5-3.9,4.5c0,0-0.5,0.7-0.7,1.5c-0.3,1-0.4,1.5,0.2,1.8
			c0.3,0.1,1.8-0.6,1.8-0.6c-0.3-0.5-1.5-0.2-1.5-0.2s0.6-0.8,1.2-1.1c0.6-0.3,1.4-0.2,1.4-0.2l-0.7-0.5c0,0,0-0.5,0.6-2
			c0.7-1.5,1.4-2.7,4-3.4c2.6-0.7,4-0.8,5.6-0.1C199,99.2,200.2,100,200.2,100z"/>
		<path class="st0" d="M198.5,110.2c0,0-0.9-0.5-1.9-0.9c-0.9-0.4-2.1-0.7-2.1-0.7s2.9-0.5,4.5-0.9c1-0.2,1.5-0.4,2.1-0.7
			c0.6-0.3,0.9-0.6,0.9-0.6s0.4-0.2,0.9-1.6c0.4-1.1-0.2-3.1,0.1-3.4c0.5-0.6,3.6,0.2,5,2.3c1,1.6,0.1,4.1,0.1,4.1s0.9-0.3,1-2.7
			c0.1-2.7-3-4.3-3-4.3s1.9,0.4,3.1,2.4c1.2,2,0.5,4.4-1.2,6.6c-1.7,2.1-5.4,2.1-6.9,1.8c0,0,0.7,0.8,0.9,1.5
			c0.3,1.4-0.1,2.3-0.7,2.6c-0.5,0.3-3.2,0.5-4,0.5c-0.9,0-1.2,0-2.5,0.1s-2.6-0.2-3.2-0.2c-0.3,0-0.6,0.1-1.4,0.3
			c-1.3,0.3-1.2,0-1.2,0s0.2-0.6-1.4-0.4c-1.1,0.2-2,0.2-2,0.2s-0.9,0.5-2.5,0.2s-1.7-1.3-1.7-1.3s1.2,0.6,2.5,0.5
			c1.3,0,1.9-0.7,1.9-0.7s0.3,0.5,1.6,0.1c0.7-0.2,1-0.5,1-0.5s2.5,0.2,2.8,0.2c0.9,0.1,2.8,0.3,2.8,0.3s0.2,0,1.8,0.1
			c1.1,0.1,1.9,0.1,2-0.1c0.1-0.3-0.8-0.6-0.8-0.6s1.5,0.2,2.3,0.2c0.6,0,1-0.1,1.3-0.3c0.3-0.2,0.3-1.1,0-1.4
			c-0.4-0.5-0.3-0.4-0.8-0.7c-1.4-0.6-1.2-0.9-1.2-0.9s-0.4-0.5,0.5-0.1c0.4,0.2-0.1-0.6-0.1-0.6S198.9,110.4,198.5,110.2z
			 M204.3,102.7c0,0,0.2,2.9-0.6,4.2c-0.8,1.3-2.8,3-2.8,3c2.2,0.9,6.2-0.3,6.8-2.5c0.6-2.1-0.3-3.9-1.3-4.5
			C205.3,102.2,204.3,102.7,204.3,102.7z"/>
		<path class="st0" d="M192.5,107.9c0,0,0.2,0.1,0.7,0.2c0.4,0.1,1.9,0.7,1.9,0.7s0.6,0.1,1-0.3c0.5-0.6-1.4,0-1.3-0.6
			c0-0.2-0.3-0.4-0.3-0.4s-0.6-0.1-1-0.1C192.6,107.5,192.5,107.9,192.5,107.9z"/>
		<path class="st0" d="M178.9,108.5c0,0,1.6-0.1,3.1-0.5c1.6-0.4,1.8-0.8,2.5-1c0.5-0.2,1.6-0.1,1.6-0.1s-0.3,0.1-0.4,0.5
			s0.1,0.7,0.1,0.7s0.6-0.2,1-0.1c0.4,0.1,0.5,0.3,0.5,0.3s-0.4,0.7,0.1,0.9c0.6,0.2,1.3,0.2,2.5,0.6s2,0.5,2.9,0.7
			c0.9,0.2,2,0.5,2,0.5s0.1,0.1-0.2,0.3c-0.3,0.2,0.9,0.6,0.9,0.6s0.1,0.1-0.8,0c-0.7-0.1-0.9,0-1.8-0.2c-1.4-0.3-1.9-0.3-1.9-0.3
			s-0.6-0.1-1.3-0.1c-0.4,0-1.7-0.1-3.1-0.2c-1.4-0.2-2.5-0.4-3.2-0.7c-0.8-0.3-1.7,0-1.7,0s-0.3-0.4-1.1-0.1c-0.7,0.3-1,1.1-1,1.1
			s0.4-0.2,0.7-0.2c0.3,0,0.6,0.1,0.6,0.1s0.2,0.4-0.1,0.7c-0.3,0.3-1,0.6-1,0.6s0-0.2-1.5-0.2s-1.6-0.2-2.1,0.5s-0.3-1.2-0.3-1.2
			s0.3-0.6,2.3-1.5s3.6-0.8,4.3-0.9c0.7,0,1.7,0.1,2.7,0.2c0.6,0.1,2.1,0.6,2.1,0.6s-0.7-0.6-2.1-1.1c-1.2-0.4-4.3-0.4-5.9-0.1
			c-1.6,0.3-2.1,0-2-0.2C177.6,108.7,178.9,108.5,178.9,108.5z"/>
		<path class="st0" d="M179.7,111.4c0,0,0.7-0.3,1.2-0.1c0.2,0.1,0.3,0.1,0.4,0.3c0.1,0.2,0.5,0.4,0.5,0.4s-1.7,0.1-1.3,0.9
			c0.3,0.8,1.3,0.7,1.3,0.7s-0.5,0.2-0.6,0.7s0.3,0.8,0.3,0.8l1.4,0.5l-0.8,0.3c0,0-0.6-0.2-0.7,0.1c-0.1,0.3-0.2,0.7-0.2,0.7
			s-0.6-0.6-0.6-1.3c-0.1-0.7,0.5-1.3,0.5-1.3s-0.4-0.4-0.8,0s-0.4,0.8-0.4,0.8s-0.6-0.5-0.7-1.3c-0.1-0.7,0.5-1.3,0.5-1.3
			L179.7,111.4z"/>
		<path class="st0" d="M167.4,93.2c-0.4,2.9-1.5,4.3-1.8,5.3c0,0-0.2-0.5-0.8-0.9c-0.6-0.4-1.5,0.2-1.5,0.2s-0.9-1.2-2.9-2
			c-1.6-0.7-1.4,0.7-1.4,0.7s-1.4-1.5-2-2.1c-0.7-0.8-1.4-0.4-2.1-0.2c-0.6,0.2-2.5-0.1-2.5-0.1S151,94,151,92.6c0-1,1-1.3,1-1.3
			s-0.9-0.5-0.8-1.5s1.2-1,1.2-1s-0.8-0.6-0.8-1.2c0-0.5,0.9-1.4,1.5-1.4c0.6-0.1,2.7,1.1,3.7,1.3c0.9,0.2,0.5,1.4,2.1,2
			c0.7,0.3,1.9,0.6,3.4,0.6s2,0.6,3.7,1s1.8-0.3,1.8-0.3S167.5,92.2,167.4,93.2z M153.9,86.7c-0.6-0.2-0.9-0.1-1.4,0.2
			c-0.2,0.3-0.2,0.9,0.2,1.1c1.1,0.2,1-0.7,2.1-0.6C154.5,87.2,154.2,87,153.9,86.7z M152.7,91.5c-0.4,0.1-1.1,0.7-1,1.3l0,0
			c0.2,0.6,0.4,0.7,1.1,0.8c0.3-0.1,0.6-0.1,0.6-0.4l0,0c0,0-0.2-0.1,0-0.3c0.4-0.4,0.8-0.3,1.2-0.3c-0.6-0.6-0.8-0.5-1.1-0.7
			c-0.7-0.6-0.2-0.9,0.1-1.2c0.2-0.1,0.9-0.1,1.3,0.1l-1.2-1.4c-0.5-0.3-1.4-0.5-1.7,0.3c-0.1,0.2-0.1,0.8,0.2,0.9
			C152.6,91.1,152.8,91.2,152.7,91.5z M166.1,95.5c0,0-0.2-1.1,0.1-2c0.4-0.9,1.2-1.6,1.2-1.6c-0.8,0.5-1.2,0-3.3-0.6
			c-2.1-0.6-3.2-0.4-4.1-0.5c-0.8-0.1-2.8-1.2-3.1-1.5c-0.3-0.3-0.2-0.5-0.4-1.1c-0.1-0.4-0.7-0.6-1.1-0.5s-0.5,0.4-0.5,0.4
			s-0.2,0.1-0.6,0.1c-0.4,0.1-0.7,0.6-0.7,0.6s0.4-0.2,0.7-0.1c0.3,0,0.6,0.3,0.6,0.3c0,0.9-0.1,1,0.3,1.6c0.5,0.9,1.6,1.8,1.6,1.8
			c1.1,0.7,2.5,1.3,2.7,1.4c0.2,0.1,1,0.5,1.8,0.7c0.8,0.3,1.5,1.2,1.5,1.2s0-0.9,1.3-0.5C164.9,95.5,166.1,95.5,166.1,95.5z"/>
		<path class="st0" d="M179.4,85.4c0,0,0.3,1.6,0,2.3c-0.5,1.4-1.3,1.7-1.6,3c-0.3,1.6,0.2,3.4,0.5,4.3s0.6,2,0.2,2.7
			c-0.3,0.7-0.9,1.5-1.4,2.4c-0.4,0.9-0.7,2.1-0.7,2.1s0.6-1.5,1.1-2.1c0.5-0.8,1.3-1.8,1.6-2.6c0.7-2-0.3-3.3-0.6-4.4
			c-0.3-1.4,0.1-2.6,0.9-3.6c0.7-0.9,0.9-1.7,1.1-2.6c0.2-1.1,0.2-2,0.2-2L179.4,85.4z"/>
		<path class="st0" d="M146.6,126.7c0,0,32-0.8,40.2-1.6c2.2-0.2,6.1-0.3,8.5-0.6c2.4-0.2,6-0.4,6-0.4s-1.1,0.5-3.9,0.8
			c-3.1,0.3-8.9,1-11.6,1c-3.3,0-14.2,0.8-17.5,1C154.8,127.6,146.6,126.7,146.6,126.7z"/>
		<path class="st0" d="M165.3,48.4L157.1,85c0,0,0,0.5,0.2,0.6c0.2,0.1,0.4,0.1,0.7,0.3c0.3,0.2,0.5,0.4,0.5,0.4s-0.6,0-1.3-0.3
			c-0.7-0.2-0.8-0.7-0.8-0.7l8.4-36.9c0.3-1.6,0.8-4.9,0.9-5.7c0.1-0.8-0.1-0.6-0.4-0.2c-0.3,0.4-1.3,2.9-1.8,5.1
			c0,0-8,33.7-8.2,34.6c-0.2,0.9-0.1,1.4-0.5,2.1c-0.5,0.8-0.9,0.9-1.4,0.9c-0.4,0-1-0.1-1.1,0.3c-0.1,0.2,0.3,0.4,0.7,0.4
			c0.5,0.1,1,0,1.5-0.1c0.6-0.2,0.8-0.2,0.8-0.2s0.2,0.3,0.3,0.5c0.3,0.3,0.5,0.5,0.9,0.6c0.3,0.1,1.1,0.4,1.6,0.3
			c0.5,0,0.6,0.3,0.7,0.5c0.1,0.2,0.5,0.4,1,0.2c0.4-0.2,0.4-0.8,0.1-1.1c-0.4-0.4-1,0-1.1-0.1c-0.1-0.2,0.4-0.7,1.2-0.5
			c0.7,0.2,1.1,0.8,0.8,1.7c-0.3,0.9-1.3,0.9-1.8,0.8c-0.5-0.1-0.8-0.5-1-0.5c-0.2-0.1-0.6-0.1-0.6-0.1s-3.5-1.4-3.8-1.5
			c-0.3-0.1-1,0.1-1.3,0.1c-0.3,0.1-0.5,0.3-1.1,0.2c-0.4-0.1-1.6-0.5-1.2-1.6c0.3-0.8,0.8-1.1,1.7-1c0.4,0.1,0.5,0.5,0.8,0.5
			c0.5,0.1,0.9,0,1-0.5c0.2-0.5,8.8-34.8,8.8-34.8c1.2-4.1,2.2-6.6,3-7.6s1.2-1.9,1.1,0.4C166.1,44.4,165.8,46,165.3,48.4z
			 M151.1,85.8c0.3,0,0.5-0.2,0.5-0.4c0-0.2-0.2-0.4-0.5-0.4c-0.3,0-0.5,0.2-0.5,0.4C150.7,85.6,150.9,85.8,151.1,85.8z"/>
		<path class="st0" d="M169.6,104.8c0,0,0.2-2.6,1.2-5.7c0.4-1.3,1.3-2.8,1.5-4.1c0.2-1.5-0.2-3.3-0.1-4.2c0.1-0.9,0.2-1.7,0.2-1.7
			h0.6c0,0-0.2,2-0.1,2.8c0.2,0.8,0.4,2.4,0.1,3.5c-0.5,1.7-1.4,2.9-1.8,4.3c-0.5,1.8-0.7,3.8-0.8,5.6L169.6,104.8z"/>
		<path class="st0" d="M149.5,85.5c0.3,0,0.5-0.2,0.5-0.5s-0.2-0.5-0.5-0.5S149,84.7,149,85C148.9,85.3,149.2,85.5,149.5,85.5z"/>
		<path class="st0" d="M153.4,97.4c0.4,0,0.7-0.3,0.7-0.7c0-0.4-0.3-0.7-0.7-0.7s-0.7,0.3-0.7,0.7C152.7,97.1,153,97.4,153.4,97.4z"
			/>
		<path class="st0" d="M152.6,93.9C152.6,93.9,152.8,93.8,152.6,93.9c-0.2,0.3-0.6,0.8-0.5,1.4c0.1,0.5,0.5,1.2,1.4,1.3
			c0.9,0.1,1.6-0.3,1.8-1.1c0.2-0.8-0.1-1.1-0.3-1.3c-0.2-0.2-1.1,0.1-1.1,0.1c0.4,0.3,0.6,0.6,0.5,1c0,0.4-0.4,0.6-0.7,0.5
			c-0.3-0.1-0.7-0.3-0.6-0.8c0.2-0.5,0.7-0.8,0.7-0.8s0-0.2,0.2-0.4C154.1,93.7,152.6,93.9,152.6,93.9z"/>
		<path class="st0" d="M161.1,88.3c0.4,0,0.7-0.3,0.7-0.7s-0.3-0.7-0.7-0.7c-0.4,0-0.7,0.3-0.7,0.7S160.7,88.3,161.1,88.3z"/>
		<path class="st0" d="M157.6,110.4c0,0,0.9,1.9,1.7,3c0.9,1.1,1.4,2,2,2.9c0.5,0.9,2.1,3.4,3.4,5.1s3.6,4.3,3.6,4.3s-3-4.7-3.9-5.9
			c-0.9-1.2-1.8-2.7-2.6-3.8C160.9,114.8,158.1,110.8,157.6,110.4z"/>
		<path class="st0" d="M165.2,110.3c0,0,3.5,4.3,5.3,6.4s2.7,3.7,3.5,4.8c0.9,1,3.4,3.9,3.4,3.9s-1.2-2.7-2.7-4.3
			c-1.4-1.5-2.5-3.3-3.6-4.7c-1.1-1.3-2.8-3.6-3.6-4.3S165.5,110.2,165.2,110.3z"/>
		<path class="st0" d="M176.4,113.7c0,0,4.4,5.5,5.1,6.2s3.1,4.1,3.1,4.1s2.6,2.6,0.9,0.2c-0.4-0.6-2.6-3.4-3.6-4.6s-2.1-2.5-3-3.6
			C178,114.7,176.6,113.9,176.4,113.7z"/>
		<path class="st0" d="M187.2,116.2c0,0,0.7,1.3,1.4,2c0.7,0.7,2.2,2.4,2.7,2.9c0.5,0.6,3.3,3,3.3,3s-1.1-1.6-1.9-2.4
			s-1.7-1.7-2.3-2.4C189.8,118.6,187.6,116.5,187.2,116.2z"/>
		<path class="st0" d="M195,115.9c0,0,2.2,2.3,3.3,3.6c1.1,1.2,3.6,3.3,3.6,3.3s-0.5-1.2-1.3-1.9c-0.8-0.7-2.3-2.4-2.9-3.1
			c-0.7-0.9-1.7-1.8-1.7-1.8L195,115.9z"/>
		<path class="st0" d="M159.6,121.4c0,0,3.4-0.4,5-0.4c1.5-0.1,7-0.2,9-0.2s10.1-0.6,12.9-0.7s7.4-0.6,8.4-0.6
			c1.1,0,10.5-0.2,10.5-0.2s-1.5,0.4-4.4,0.6c-0.6,0-6.7,0.5-7.6,0.5s-3.7,0.1-3.7,0.1s-2.7,0.3-4,0.2c-1.3-0.1-3.9,0.3-3.9,0.3
			s-1.3,0-2.9,0.2s-4.6,0-4.9,0.1c-0.3,0.1-2.6,0.3-4.6,0.4c-2,0-3.8,0-4-0.1s-1.8,0.1-2.7,0.1C161.8,121.5,159.6,121.4,159.6,121.4
			z"/>
		<path class="st0" d="M179.4,115.4c0,0-4.3,0-5.2,0c-0.9,0-4.1,0.3-4.1,0.3s-2.8-0.1-4.2-0.1c-1.4,0-7.8,0.4-7.8,0.4
			s2.1,0.2,7.9,0.1c1.4,0,4.3,0,4.9,0s3.2,0,4.1-0.1C179.3,115.6,179.4,115.4,179.4,115.4z"/>
		<path class="st0" d="M169,111.3c0,0-4.4,0.1-6.2,0.1c-1.8,0.1-5.2,0.1-5.2,0.1s1-0.3,2.7-0.3c1.7-0.1,3.2,0,4.2-0.1
			C166.2,111,169,111.3,169,111.3z"/>
		<path class="st0" d="M140.8,96.1c-0.1,0-0.2,0-0.2,0h-0.1l-0.1,0.1v0.1c-0.1,0.2-0.2,0.5,0,0.8c0.2,0.2,0.6,0.2,0.6,0.6v0.1v-0.2
			v0.1c0,0.1-0.1,0.1-0.1,0.2V98c0,0.1,0,0.2,0,0.2l0,0c0.2,0.4,0.6,0.6,1,0.7c-0.1,0.2-0.3,0.4-0.3,0.6v0.1c0,0.1,0,0.1,0.1,0.2
			v0.1c0.1,0.3,0.4,0.4,0.7,0.6c0.1,0.1,0,0.2-0.1,0.3c-0.2,0.3,0,0.7,0.3,1c0.2,0.2,0.4,0.2,0.6,0.4c0.1,0.3-0.1,0.6-0.1,1
			c0.1,0.5,0.4,0.9,0.9,0.9l0.1,0.1c-0.1,0.3-0.3,0.5-0.2,0.8c0.1,0.5,0.5,0.6,0.8,0.8c-0.1,0.1,0.1,0.2-0.1,0.4
			c-0.1,0.5,0.3,1.1,0.9,1.2c0.1,0,0.1,0.1,0.2,0.1h0.1v-0.1c-0.2-0.3-0.5-0.5-0.6-0.9c0.3-0.5,0.1-1.2-0.5-1.4c0,0-0.1-0.1,0-0.1
			c0.1-0.3,0.3-0.7,0.1-1.1c-0.1-0.3-0.4-0.4-0.8-0.4c0,0,0-0.1,0-0.2c0-0.3,0.1-0.6,0.1-1c-0.1-0.5-0.5-0.7-0.8-0.9h-0.1
			c0.3-0.6,0.1-1.4-0.6-1.6l-0.1-0.2l0.1,0.2v-0.1c0.2-0.4,0.3-0.8-0.1-1.2c-0.2-0.2-0.5-0.2-0.7-0.4l-0.5-0.1v0.2v-0.1l0,0l0.1-0.2
			c0,0,0-0.1,0-0.2v-0.1c-0.1-0.4-0.4-0.7-0.8-0.8c-0.1,0-0.1-0.2-0.1-0.3v-0.2v0.1l0.1-0.1C140.6,96.2,140.8,96.3,140.8,96.1
			C140.8,96.2,140.8,96.2,140.8,96.1C140.8,96.2,140.8,96.1,140.8,96.1L140.8,96.1z"/>
		<path class="st0" d="M144.4,95.4C144.3,95.4,144.3,95.5,144.4,95.4l-0.2,0.1c0,0-0.1,0-0.1,0.1v0.1c-0.1,0.2-0.2,0.5,0,0.8
			c0.2,0.2,0.5,0.1,0.5,0.6l0,0v-0.2V97c0,0.1-0.1,0.1-0.1,0.2v0.1c0,0.1,0,0.2,0,0.2l0,0c0.2,0.4,0.6,0.6,1,0.7
			c-0.1,0.2-0.3,0.4-0.3,0.6v0.1c0,0.1,0,0.1,0.1,0.2v0.1c0.1,0.3,0.4,0.4,0.7,0.6c0.1,0.1,0,0.2-0.1,0.3c-0.2,0.3,0,0.7,0.3,1
			c0.2,0.2,0.4,0.2,0.6,0.4c0.1,0.3-0.1,0.6-0.1,1c0.1,0.5,0.4,0.9,0.9,0.9l0.1,0.1c-0.1,0.3-0.3,0.5-0.2,0.8
			c0.1,0.5,0.5,0.6,0.8,0.8c-0.1,0.1,0.1,0.2-0.1,0.4c-0.1,0.5,0.3,1.1,0.9,1.2c0.1,0,0.1,0.1,0.2,0.1c0.1,0,0.1,0,0.1,0v-0.1
			c-0.2-0.3-0.5-0.5-0.6-0.9c0.3-0.5,0.1-1.2-0.5-1.4c0,0-0.1-0.1,0-0.1c0.1-0.3,0.3-0.7,0.1-1.1c-0.1-0.3-0.4-0.4-0.8-0.4
			c0,0,0-0.1,0-0.2c0-0.3,0.1-0.6,0.1-1c-0.1-0.5-0.5-0.7-0.8-0.9h-0.1c0.3-0.6,0.1-1.4-0.6-1.6l-0.1-0.2l0.1,0.2V99
			c0.2-0.4,0.3-0.8-0.1-1.2c-0.2-0.2-0.5-0.2-0.7-0.4l-0.1-0.2v0.2v-0.1l0,0l0.1-0.2c0,0,0-0.1,0-0.2v-0.1c-0.1-0.4-0.3-0.6-0.7-0.7
			c-0.1,0-0.1-0.2-0.1-0.3v-0.2v0.1l0.1-0.1c-0.1-0.1,0.1-0.1,0.1-0.1l0,0C144.5,95.5,144.4,95.4,144.4,95.4L144.4,95.4z"/>
		<path class="st0" d="M147.7,95c-0.4,0.5-0.2,1.2,0.4,1.4c0.2,0.3,0,0.3-0.1,0.6v0.1c0,0.1,0,0.1,0,0.1l0,0
			c0.1,0.3,0.3,0.5,0.6,0.7h0.1l-0.1-0.1l0,0c0.2,0.1,0.4,0.3,0.3,0.5c-0.3,0.5,0,1.2,0.5,1.4h0.1l-0.2-0.1l0.1,0.2
			c0.1,0,0.1,0.1,0.2,0.2c0,0.1,0,0.2-0.1,0.4c-0.2,0.5,0.2,1,0.7,1.3c0.1,0,0.1,0.1,0.1,0.2c-0.1,0.5-0.3,1,0.1,1.3
			c0.3,0.2,0.5,0.5,0.6,0.8c0,0.1,0.1,0.2,0.2,0.1c0.1,0,0.2-0.1,0.2-0.2c0.1-0.3,0.1-0.7-0.1-1c-0.1-0.1-0.3-0.3-0.5-0.4
			c-0.1,0-0.1-0.2-0.1-0.3c0.2-0.4,0.2-0.9-0.1-1.3c-0.2-0.2-0.4-0.3-0.6-0.5c-0.2-0.4,0.1-0.7,0-1.1c0-0.1-0.1-0.2-0.1-0.3l0,0
			c0-0.1-0.1-0.1-0.1-0.1l-0.2-0.1c-0.2-0.1-0.4-0.3-0.5-0.5c-0.1-0.3,0.2-0.7,0-1v-0.1c0-0.1-0.1-0.1-0.2-0.1h-0.1c0,0,0,0,0.1,0
			c-0.1-0.1-0.2-0.1-0.3-0.2l-0.1,0.1v0.1V97c-0.1,0-0.1-0.1-0.1-0.1c0.2-0.5,0.1-0.8-0.4-1.1c-0.2-0.1-0.2-0.4-0.1-0.7
			c0-0.1,0-0.2-0.1-0.2C147.8,94.9,147.7,94.9,147.7,95L147.7,95z"/>
		<path class="st0" d="M137.4,96.8c-0.4,0.5-0.2,1.2,0.4,1.4c0.2,0.3,0,0.5-0.1,0.8v0.1c0,0.1,0,0.1,0,0.1l0,0
			c0.1,0.3,0.3,0.5,0.6,0.7h0.1l-0.1-0.1l0,0c0.2,0.1,0.4,0.3,0.3,0.5c-0.3,0.5,0,1.2,0.5,1.4h0.1l-0.2-0.1l0.1,0.2
			c0.1,0,0.1,0.1,0.2,0.2c0,0.1,0,0.2-0.1,0.4c-0.2,0.5,0.2,1,0.7,1.3c0.1,0,0.1,0.1,0.1,0.2c-0.1,0.5-0.3,1,0.1,1.3
			c0.3,0.2,0.5,0.5,0.6,0.8c0,0.1,0.1,0.2,0.2,0.1c0.1,0,0.2-0.1,0.2-0.2c0.1-0.3,0.1-0.7-0.1-1c-0.1-0.1-0.3-0.3-0.5-0.4
			c-0.1,0-0.1-0.2-0.1-0.3c0.2-0.4,0.2-0.9-0.1-1.3c-0.2-0.2-0.4-0.3-0.6-0.5c-0.2-0.4,0.1-0.7,0-1.1c0-0.1,0-0.2-0.1-0.3l0,0
			c0-0.1-0.1-0.1-0.1-0.1l-0.1,0.1c-0.2-0.1-0.4-0.3-0.5-0.5c-0.1-0.3,0.2-0.7,0-1v-0.1c0-0.1-0.1-0.1-0.2-0.1h-0.1c0,0,0,0,0.1,0
			c-0.1-0.1-0.2-0.1-0.3-0.2l-0.1-0.1v0.1V99c-0.1,0-0.1-0.1-0.1-0.1c0.2-0.5,0-1-0.4-1.3c-0.2-0.1-0.2-0.4-0.1-0.7
			c0-0.1,0-0.2-0.1-0.2C137.6,96.6,137.5,96.7,137.4,96.8L137.4,96.8z"/>
		<path class="st0" d="M140.9,105.8c-0.1,0.3,0,0.6,0.3,0.8c0.1,0.1,0.2,0.3,0.2,0.5l-0.1-0.1c0,0.1,0,0.1-0.1,0.2v0.1
			c0,0.1,0,0.1,0,0.2v0.1c0.1,0.4,0.5,0.6,0.8,0.8c0.1,0.1,0.3,0.1,0.4,0s0.1-0.3,0-0.4c-0.2-0.2-0.4-0.3-0.5-0.5l-0.1-0.2v0.2v-0.1
			c0.2-0.4,0-1.1-0.5-1.2c0,0-0.1,0.1-0.2-0.1C141.1,106,141,105.9,140.9,105.8C141,105.8,141,105.8,140.9,105.8L140.9,105.8
			L140.9,105.8z"/>
		<path class="st0" d="M143.4,110.4L143.4,110.4L143.4,110.4l-0.2-0.1l-0.1,0.1c-0.4,0.5,0,1,0.2,1.4c0,0-0.1,0.1-0.2,0.2
			c-0.3,0.2-0.4,0.7-0.1,1c0.2,0.2,0.5,0.4,0.4,0.7c-0.1,0.3-0.5,0.6-0.5,1c0,0.3,0.2,0.5,0.4,0.7c0.2,0.4-0.2,0.7-0.3,1.1
			c-0.1,0.3,0.1,0.7,0.4,0.8c0.2,0.4-0.3,0.6-0.4,1l0,0c0,0.1,0,0.1,0,0.2v0.1c0,0.1,0.1,0.2,0.2,0.3c0.1,0.2,0.4,0.3,0.3,0.5
			c0,0.4-0.3,0.6-0.6,0.8c-0.1,0.1-0.2,0.3-0.1,0.4c0.1,0.1,0.3,0.2,0.4,0.1c0.5-0.2,0.9-0.7,0.9-1.3c0-0.3-0.2-0.6-0.5-0.8
			l-0.1-0.1v0.2l0.1-0.2c0.2-0.3,0.5-0.6,0.5-1c0-0.3-0.2-0.6-0.4-0.9c0.2-0.4,0.4-0.8,0.4-1.2c0-0.4-0.4-0.5-0.4-0.9
			c0-0.2,0.3-0.4,0.3-0.6c0.1-0.5-0.2-0.9-0.3-1.3c0.2-0.2,0.3-0.5,0.2-0.8c-0.1-0.3-0.5-0.6-0.4-1v-0.1h-0.1l0,0h0.1
			C143.5,110.5,143.5,110.4,143.4,110.4C143.4,110.3,143.3,110.3,143.4,110.4L143.4,110.4z"/>
		<path class="st0" d="M146.9,110.2c-0.1,0-0.3,0-0.4,0.1c-0.4,0.5-0.2,1.1,0.1,1.6v0.2c-0.3,0.4-0.5,0.9-0.3,1.4
			c0.1,0.3,0.3,0.4,0.5,0.7c0,0.1,0,0.2,0,0.2c-0.5,0.5-0.6,1.3,0,1.7c0.1,0.2,0,0.5-0.2,0.6l-0.1,0.1l-0.1,0.1v0.1
			c-0.1,0.5,0.2,0.8,0.4,1.2c0,0.1,0,0.2,0,0.2c-0.4,0.3-0.7,0.7-0.6,1.3c0,0.2,0.2,0.3,0.3,0.3c0.2,0,0.3-0.2,0.3-0.3
			c0-0.1,0-0.2,0-0.3c0.2-0.3,0.5-0.5,0.6-0.9s-0.2-0.7-0.4-1c-0.1-0.1,0-0.2,0-0.3v-0.1l-0.1,0.1l0.1-0.1c0.4-0.3,0.4-0.7,0.3-1.1
			c-0.1-0.3-0.3-0.4-0.4-0.7c-0.1-0.4,0.2-0.8,0.3-1.2c0-0.1,0-0.2,0-0.2c-0.1-0.3-0.3-0.6-0.2-1c0.1-0.3,0.3-0.6,0.4-0.9
			c0.1-0.5-0.3-0.8-0.5-1.2C146.7,110.7,146.8,110.4,146.9,110.2L146.9,110.2L146.9,110.2L146.9,110.2z"/>
		<path class="st0" d="M150.2,109.7c-0.1,0-0.3,0-0.4,0.2c-0.5,0.7,0,1.4,0.3,2c-0.1,0.1-0.1,0.2-0.2,0.3c-0.5,0.5-0.3,1.4,0.2,1.9
			l0,0l0,0l0,0c0.1,0.1,0.1,0.2,0.1,0.3c-0.1,0.4-0.4,0.6-0.5,1c0,0.3,0.1,0.5,0.3,0.8c0.1,0.2,0.2,0.4,0.1,0.5
			c-0.6,0.6-0.2,1.4,0.2,2c0,0.4-0.1,0.7-0.3,1c-0.1,0.1-0.1,0.2,0,0.3c0.1,0.1,0.2,0.1,0.3,0.1c0.2-0.1,0.4-0.2,0.5-0.3
			c0.4-0.5,0.4-1.2-0.1-1.7c-0.3-0.4,0-0.8,0-1.2c0-0.4-0.2-0.7-0.4-1.1c-0.1-0.2-0.1-0.4-0.1-0.5c0.2-0.4,0.5-0.8,0.4-1.2l0,0
			c0-0.1-0.1-0.1-0.2-0.2v-0.1c-0.1-0.3-0.2-0.5-0.1-0.8l-0.1,0.1c0.5-0.3,0.8-0.9,0.5-1.5C150.6,110.9,149.8,110.4,150.2,109.7
			C150.3,109.7,150.3,109.7,150.2,109.7L150.2,109.7L150.2,109.7z"/>
		<path class="st0" d="M154.1,110.7c-0.4,0-0.5,0.4-0.5,0.7c0,0.3,0.1,0.6,0.3,0.8c0.1,0.1,0.1,0.2,0.1,0.2
			c-0.1,0.3-0.4,0.5-0.5,0.9c0,0.5,0.3,0.9,0.6,1.2h0.1l-0.1-0.2l0,0c0,0.4-0.4,0.6-0.5,1c-0.1,0.5,0.2,0.8,0.4,1.2v0.1
			c-0.2,0.3-0.5,0.6-0.4,1c0,0.5,0.4,0.7,0.6,1.1c0,0.5-0.2,0.9-0.6,1.2c0,0-0.1,0.1,0,0.1c0,0,0.1,0.1,0.1,0
			c0.3-0.2,0.6-0.3,0.8-0.6c0.3-0.3,0.4-0.8,0.2-1.2c-0.2-0.3-0.4-0.4-0.5-0.7c0-0.1-0.1-0.2,0-0.2c0.2-0.3,0.3-0.5,0.4-0.8
			c0.1-0.4-0.3-0.6-0.4-0.9c-0.1-0.1-0.1-0.2,0-0.2c0.3-0.4,0.7-0.9,0.6-1.4l0,0c0-0.1-0.1-0.1-0.1-0.2l0,0
			c-0.1-0.1-0.1-0.4-0.3-0.4c0.3-0.3,0.7-0.7,0.6-1.2c-0.1-0.4-0.3-0.6-0.6-0.9C154,111.2,154.1,111,154.1,110.7
			C154.2,110.8,154.2,110.7,154.1,110.7L154.1,110.7L154.1,110.7z"/>
		<path class="st0" d="M138.6,121.7c0,0,2.7-0.2,4.2-0.4c1.6-0.2,4.8,0,7.7-0.1c3.1-0.1,7.1-0.5,7.1-0.5s0.3-3,0-4.9
			s-0.1-6.1-0.1-6.1s0.6,2.5,0.7,4.1c0.1,1.6,0.3,3.6,0.4,4.5c0.1,1,0.1,0.9,0.2,1.9c0.2,1,0.2,2.4,0.2,2.4s-1.8,0.6-3,0.5
			s-4.3-0.3-5.8,0c-1.4,0.3-2.5,0.4-4.4,0.3c-2-0.1-3.9-0.1-4.2,0.2c-0.3,0.3-1.1-0.7-1.1-0.7s2.9-0.4,4.5-0.3
			c1.7,0.1,5.3-0.2,6.4-0.3c1.1-0.1,2.9,0.2,3.9,0.1c2.2-0.2,2.5-0.7,2.5-0.7s-1.8-0.1-4.1,0c-2.3,0.1-4.2,0.2-5.9,0.2
			c-1.8,0-4.5,0-5.6,0.1c-1.1,0.1-2.6,0.3-2.6,0.3L138.6,121.7z"/>
		<path class="st0" d="M146.9,123.3c0,0,0.2,0.8,0.3,1.6c0.3,1.6,2.2,3,2.2,3l1,0.3l-0.3-0.7c0,0-1.7-1.5-2-2.6
			c-0.1-0.6,0-1.6,0-1.6S146.9,123.3,146.9,123.3z"/>
		<path class="st0" d="M155.7,122.8c0,0,0.1,0.9,0.4,2.1c0.3,1.3,2.4,2.9,2.2,2.7c0.3,0.4,0.9,0.7,0.9,0.7l0.6-0.1l-0.2-0.7
			c0,0-2-1.6-2.3-2.5c-0.8-1.8-0.2-1.8-0.4-2.3C156.6,122.5,155.7,122.8,155.7,122.8z"/>
		<path class="st0" d="M132.9,95.9l0.1,0.3c0,0,2.8-0.6,4.6-0.9c1.7-0.3,2.4-0.2,5.3-0.8c2.8-0.6,6.5-0.9,6.5-0.9s1.4,2.9,2.1,4.3
			s2.4,4.7,2.4,4.7s-0.4-2.4-0.9-3.2c-0.5-0.8-1.6-3-2-3.9s-1.2-3.1-1.2-3.1s-2.1,0.6-2.3,0.6c-0.1,0-0.2-0.1-0.2-0.1
			s0.1-1.2-0.1-1.7c-0.2-0.5-2.2-3.7-2.2-3.7l-0.7-0.5l0.3,1.2c0,0,1.3,1.8,1.6,2.6c0.3,0.9,0.3,2.4,0.3,2.4l-7.9,1.4
			c0,0-0.6-1.9-1.3-3.2c-0.2-0.4-1.7-1.1-1.9-1.4c-0.2-0.2-0.4-0.6-0.4-0.6l-0.4-0.3c0,0-0.3,0.9,0,1.3c0.6,0.8,1.4,0.7,1.9,1.4
			c0.9,1.4,1.1,2.8,1.1,2.8l-4,0.9L132.9,95.9z"/>
		<path class="st0" d="M149.1,94.5l0.2-0.4c0,0-1.6,0.2-2.3,0.2c-0.7,0-3.3,0.5-4.7,0.9c-1.4,0.3-3.9,0.4-5.3,0.7
			c-1.5,0.3-4.2,1.1-4.2,1.1s1.7,3.4,2.2,5.1s0.8,4.4,1.6,6.1c1,1.8,2.8,2.1,2.8,2.1s1.6-0.7,3.7-0.9c2-0.2,4-0.9,5.9-1.1
			c1.9-0.2,3.4-0.8,3.4-0.8s-0.9-0.7-2.1-0.5c-1.2,0.3-4.4,1.2-5.1,1.3c-0.9,0.2-2.6,0.3-3.4,0.6c-0.6,0.2-1.9,0.4-1.9,0.4
			s-1.5-0.3-2.3-2.5c-0.8-2.1-0.8-2.9-1.8-5c-0.8-1.7-2-4.6-2-4.6s1.6-0.4,2.6-0.6s1.2,0,4.1-0.6c2.8-0.6,5.5-1.1,6.8-1.3
			C147.8,94.7,149,94.5,149.1,94.5z"/>
		<path class="st0" d="M139.8,110.1c0,0-0.2,1.7-0.2,2.8c0.1,2.4,1.1,3.9,0.9,5.5c-0.3,1.6-1.2,3.3-1.2,3.3l-0.6-0.3
			c0,0,0.8-2.2,0.7-3.4c-0.1-1.2-0.7-3.6-0.6-4.9c0.1-1.3,0.4-2.9,0.4-2.9L139.8,110.1z"/>
		<path class="st0" d="M178.8,72.2c0.4-0.2,0.6-0.6,0.6-1.1c0-0.7-0.6-1.3-1.3-1.3c-0.7,0-1.3,0.6-1.3,1.3c0,0.1,0,0.2,0.1,0.4
			c-0.2-0.2-0.7-0.2-1.3-0.1c-0.5,0.2-1,0.5-1,1.3s0.4,1.4,1.2,1.4c0.1,0-0.1,0,0,0c-0.1,0.1,0,0,0,0c-0.1,0.3-0.5,0.8-1.2,0.6
			c-1-0.3-0.9-1.3-0.9-1.3s-1,0.7-1.6,0.3c-0.8-0.5-0.4-0.8-0.4-0.8c1,0.1,1.8-1,1.5-1.9c-0.3-0.8-1.3-1.2-2.1-0.9
			c0,0,0.1-0.9-1.4-1.1c-1.1-0.1-1.8,1.3-1.5,2c0.2,0.3,0.3,0.4,1.2,2.1c1,1.7,1.3,2.6,1.3,2.6c0,0.1,0,0.2,0,0.3
			c0,0.2,0.1,0.3,0.1,0.3s1.4,0.1,4.7,1.3c3.2,1.1,5.4,2.3,5.4,2.3s0-0.1,0.1-0.3v-0.1c0-0.2,0.7-0.9,1.4-1.3c2.1-1.4,3-1.7,4.1-2.3
			c0.7-0.4,0.4-1.7-0.2-2.1c-1.4-0.7-1.8,0.1-1.8,0.1c-0.5-0.6-1.6-0.7-2.3-0.2c-0.7,0.5-0.7,1.8,0.3,2.1c0,0,0,0.3-0.9,0.5
			c-0.8,0.2-1-1-1-1s-0.6,0.7-1.9,0.4c-0.4-0.1-0.8-0.5-0.6-1.3c0.3,0.4,0.6,0.4,1,0.3c0.7,0,1.3-0.5,1.3-1.3c0-0.6-0.5-1.2-1.1-1.4
			 M179.2,72.2c-0.1,0-0.3-0.1-0.4-0.1 M170.6,73.8c-0.3-0.7-1.4-2.4-1.6-2.9c-0.2-0.4,0.4-1.1,1-0.9c0.5,0.2,0.6,1.2,0.6,1.2
			s0.6-0.8,1.4-0.3c0.6,0.3,0.4,0.8,0.1,1.2c-0.4,0.4-1.3,0.1-1.3,0.1s-0.7,1,0.8,2.1c1.1,0.8,1.7,0,1.7,0s0.1,0.8,0.9,1
			c0.4,0.1,1.3,0.7,2.1-0.9c0.2-0.3,0.3-1,0.2-1s-0.3,0-0.5,0c-0.4,0-0.7-0.3-0.7-0.7c0-0.4,0.3-0.7,0.7-0.7c0.2,0,0.4,0.1,0.5,0.2
			l0,0c0,0,0.4,0.5,0.9,0c0.2-0.2,0-0.8,0-0.8l0,0c0-0.1,0-0.1,0-0.2c0-0.3,0.3-0.6,0.6-0.6c0.3,0,0.6,0.3,0.6,0.6
			c0,0.3-0.2,0.5-0.4,0.5c-0.1,0.1-0.3,0.3-0.3,0.6c-0.1,0.6,0.8,0.6,0.8,0.6l0,0l0,0c0.4,0,0.7,0.3,0.7,0.7s-0.3,0.7-0.7,0.7
			c-0.5,0-0.7-0.5-1-0.5c0,0-1.4,1.8,0.5,2.7c1.1,0.5,1.8,0,1.8,0s0.5,0.8,1.4,0.9c1.4,0,2-1.4,2-1.4s-0.9-0.2-1-0.6
			c-0.1-0.4,0.1-0.9,0.7-0.9c1,0,1.2,0.9,1.2,0.9s0.3-0.5,0.8-0.6s1,0.7,0.6,1c-0.3,0.2-2.2,1.3-3.1,1.9c-1.1,0.7-1.2,0.8-1.7,1.2
			c-0.3,0.2-0.4,0.5-0.6,0.6l-0.6-0.2c0,0,0,0-1-0.4s-1.2-0.5-1.2-0.5s-0.6-0.3-1.8-0.7c-1.2-0.4-2.1-0.7-2.1-0.7s0.1,0.1-0.9-0.2
			c-1.1-0.3-1-0.3-1-0.3l-0.6-0.1v-0.1C171.3,75.8,171,74.8,170.6,73.8z"/>
		<path class="st0" d="M172.3,78.4c0.2,0,0.9,0.6,1.2,0.9c0.4,0.4,0.7,1,0.7,1s-0.8-0.3-1.8,0c-0.9,0.3-1.3,0-1.3-0.3
			c0-0.4,0.3-0.7,0.3-0.7s-0.3,0.4,0.3,0.6c0.5,0.1,0.8-0.1,0.8-0.1s-0.6-0.1-0.6-0.4c0-0.3,0.2-0.5,0.4-0.6c0,0-0.2-0.2-0.9,0
			c-0.5,0.1-0.5,0.6-0.6,0.7c-0.1,0.1-0.1,0-0.1-0.3C170.7,78.7,170.5,77.9,172.3,78.4z"/>
		<path class="st0" d="M177,68c0.5,0,0.8-0.4,0.8-0.8c0-0.5-0.4-0.8-0.8-0.8c-0.5,0-0.8,0.4-0.8,0.8C176.2,67.6,176.6,68,177,68z"/>
		<path class="st0" d="M171.1,68.4c0-0.7,0.6-1.3,1.3-1.3c0.7,0,1.3,0.6,1.3,1.3s-0.6,1.3-1.3,1.3C171.7,69.7,171.1,69.1,171.1,68.4
			z M172.4,69c0.3,0,0.6-0.2,0.6-0.5s-0.3-0.5-0.6-0.5c-0.3,0-0.6,0.2-0.6,0.5C171.8,68.7,172.1,69,172.4,69z"/>
		<path class="st0" d="M173.9,67.5c0-0.6,0.5-1,1.1-1s1.1,0.5,1.1,1c0,0.6-0.5,1-1.1,1C174.3,68.6,173.9,68.1,173.9,67.5z M174.9,68
			c0.2,0,0.4-0.2,0.4-0.4s-0.2-0.4-0.4-0.4c-0.2,0-0.4,0.2-0.4,0.4S174.7,68,174.9,68z"/>
		<path class="st0" d="M178.6,62.9c0,0-0.2,0.2-0.4,0.6c-0.1,0.4-0.1,0.9-0.1,0.9s1.5-0.2,1.6,0.1c0.1,0.4-0.2,0.6-0.2,0.6l0.9,0.3
			c0,0-0.1-0.6,0.2-0.7c0.2-0.1,1.3,0.9,1.3,0.9s0.3-0.1,0.5-0.6c0.2-0.5-0.1-0.9-0.1-0.9s-1.5,0.3-1.5-0.1c0-0.4,1.1-1.4,1.1-1.4
			s-0.3-0.4-0.8-0.6c-0.7-0.2-0.8-0.1-0.8-0.1s-0.1,1.8-0.3,1.8C179.8,63.7,178.6,62.9,178.6,62.9z"/>
		<path class="st0" d="M171.6,70.2c0,0,1-0.9,2.9-1.6c1.9-0.7,2.9-0.7,3.5-0.9c0.6-0.2,1.1-0.3,1.1-0.3s0.5,0.9,0.2,1
			c-0.4,0.1-0.9-0.1-2,0c-1,0.1-2,0.5-3.1,1s-1.6,1.3-1.6,1.3L171.6,70.2z"/>
		<path class="st0" d="M180.9,69.1c-0.4-0.2-0.5-0.8-0.3-1.2c0.2-0.4,0.8-0.5,1.2-0.3c0.4,0.2,0.5,0.8,0.3,1.2
			C181.8,69.2,181.3,69.4,180.9,69.1z"/>
		<path class="st0" d="M184.2,74.4c0,0-0.4-1.8-1.6-3.4c-1.2-1.6-2.1-2.2-2.5-2.6c-0.4-0.5-0.8-0.8-0.8-0.8s-0.9,0.5-0.7,0.8
			c0.2,0.3,0.8,0.4,1.7,1c0.8,0.6,1.4,1.5,2.1,2.5s0.7,2.3,0.7,2.3L184.2,74.4z"/>
		<path class="st0" d="M183.8,73.2c-0.6-0.4-0.8-1.1-0.5-1.7c0.4-0.6,1.1-0.8,1.7-0.4s0.8,1.1,0.5,1.7
			C185.2,73.4,184.5,73.6,183.8,73.2z M184.5,72.7c0.3,0,0.6-0.2,0.6-0.5c0-0.3-0.3-0.5-0.6-0.5c-0.3,0-0.6,0.2-0.6,0.5
			C183.9,72.4,184.1,72.7,184.5,72.7z"/>
		<path class="st0" d="M178.2,66.5c0-0.8,0.6-1.4,1.4-1.4c0.8,0,1.4,0.6,1.4,1.4s-0.6,1.4-1.4,1.4C178.8,67.9,178.2,67.3,178.2,66.5
			z M179.6,67.2c0.4,0,0.7-0.3,0.7-0.7s-0.3-0.7-0.7-0.7s-0.7,0.3-0.7,0.7S179.2,67.2,179.6,67.2z"/>
		<path class="st0" d="M182.5,70.8c-0.5-0.3-0.7-0.9-0.4-1.4c0.3-0.5,0.9-0.6,1.4-0.3s0.7,0.9,0.4,1.4
			C183.6,70.9,183,71.1,182.5,70.8z M183,70.3c0.2,0,0.4-0.2,0.4-0.4c0-0.2-0.2-0.4-0.4-0.4c-0.2,0-0.4,0.2-0.4,0.4
			C182.6,70.1,182.7,70.3,183,70.3z"/>
		<path class="st0" d="M176.3,76.9c0.3,0,0.5-0.3,0.5-0.6s-0.2-0.5-0.5-0.5s-0.5,0.2-0.5,0.5C175.7,76.6,176,76.9,176.3,76.9z"/>
	</g>
	<g>
		<path class="st1" d="M104.9,192.1c2,0,3.3-1.4,3.3-3.2v-25.6c0-2.5-1.3-3.8-3.2-4.3v-1.1c1.9,0,3.8,0.2,5.7,0.2
			c1.9,0,3.8-0.2,5.8-0.2v1.1c-2.1,0.6-2.7,1.8-2.7,4.5c0,1.5-0.2,4.8-0.2,9.3v17.5c1.1,0.2,2.1,0.3,5.4,0.3
			c8.7,0,10.3-1.6,11.5-4.8l1.8,0.9l-2.2,7.1c-1.6-0.6-3.2-0.8-4.9-0.8h-16.5c-1.3,0-2.6,0.2-3.8,0.2
			C104.9,193.2,104.9,192.1,104.9,192.1z"/>
		<path class="st1" d="M137,164.9c1.5,0,2.9,0.2,4.4,0.2s3-0.2,4.4-0.2v0.9c-1.8,0.2-2.3,1.5-2.3,4.1c0,3.8,0,7.7,0,11.5
			c0,5.4,2.5,9.3,8.5,9.3c3.3,0,7.5-1.9,7.5-6.5v-4.8c0-4.8-0.4-9.6-0.4-11.6c0-1.1-1.1-1.9-2.1-2v-0.9c1.5,0,2.9,0.2,4.4,0.2
			s3-0.2,4.4-0.2v0.9c-1.3,0-1.9,1.6-1.9,3c0,1.5-0.1,5.8-0.1,11.1v8.8c0,2.3,0.4,3.4,2.2,3.6v0.9c-1.1,0-2.3-0.2-3.4-0.2
			c-1.1,0-2.3,0.2-3.4,0.2c0.1-1.4,0.2-2.6,0.3-3.8c-3,2.8-5.5,4.3-9.6,4.3c-6,0-10.7-3.4-10.7-9.5v-6.8c0-3.2-0.2-6-0.2-8.5
			c0-1.6-0.3-2.9-2-3.1C137,165.8,137,164.9,137,164.9z"/>
		<path class="st1" d="M175,192.3c1.6-0.4,2.5-1.6,2.5-3.9l0.1-24h1.7l19.8,21.8v-13.9c0-5-1.1-6.2-3-6.5v-0.9c1.3,0,2.7,0.2,4,0.2
			s2.7-0.2,4.1-0.2v0.9c-1.8,0.3-2.7,1.7-2.7,5l-0.1,22.9H200l-20.1-21.9l0.2,15.4c0,3.2,1,4.6,3,5.1v0.9c-1.3,0-2.7-0.2-4-0.2
			c-1.3,0-2.6,0.2-4,0.2v-0.9H175z"/>
		<path class="st1" d="M212.4,192.3c1.7-0.4,2.1-1.1,2.1-2.9v-11.8c0-3.6-0.4-6.7-0.4-8.7c0-1.7-0.6-2.9-2.1-3.3v-0.7
			c1.9,0,3.8,0.2,5.7,0.2s3.8-0.2,5.7-0.2c11.1,0,17.8,4.9,17.8,14c0,9.3-5.3,14.3-16.7,14.3c-2,0-4.1-0.2-6-0.2c-2,0-4,0.2-6,0.2
			v-0.9H212.4z M218.8,191.2c1.9,0.2,3.5,0.3,5,0.3c7.7,0,11.6-4.7,11.6-12.5c0-7.3-5.1-12.5-12.3-12.5c-1.3,0-2.6,0.1-4.2,0.2
			c0,3.6-0.2,6.8-0.2,10.2L218.8,191.2L218.8,191.2z"/>
		<path class="st1" d="M126.6,217.3c0.7-0.2,1.2-0.8,1.2-1.8l0.1-11.3h0.8l9.3,10.2v-6.6c0-2.4-0.5-2.9-1.4-3v-0.4
			c0.6,0,1.3,0.1,1.9,0.1s1.3-0.1,1.9-0.1v0.4c-0.8,0.2-1.3,0.8-1.3,2.4L139,218h-0.6l-9.5-10.3l0.1,7.3c0,1.5,0.5,2.2,1.4,2.4v0.4
			c-0.6,0-1.3-0.1-1.9-0.1c-0.6,0-1.2,0.1-1.9,0.1V217.3z"/>
		<path class="st1" d="M148.4,204.8c-0.7,0.1-0.8,0.6-0.8,1.3c0,1.8-0.1,4.1-0.1,6.1v3.7c0,0.6,0.2,1.4,0.9,1.4v0.4
			c-0.6,0-1.3-0.1-2-0.1c-0.7,0-1.3,0.1-2,0.1v-0.4c0.6,0,1-0.6,1-1.4v-2.7c0-2.3-0.2-5.6-0.2-6.8c0-0.8-0.1-1.4-0.9-1.5v-0.4
			c0.6,0,1.3,0.1,2,0.1c0.6,0,1.3-0.1,2-0.1L148.4,204.8L148.4,204.8z"/>
		<path class="st1" d="M157.9,218l-5.3-11.6c-0.2-0.5-0.6-1.3-1.4-1.5v-0.4c0.7,0,1.4,0.1,2.2,0.1c0.7,0,1.4-0.1,2.2-0.1v0.4
			c-0.4,0.1-0.7,0.2-0.7,0.7c0,0.2,0.1,0.5,0.3,1.2l3.5,8.3l3-7.8c0.2-0.5,0.3-1,0.3-1.3c0-0.7-0.2-1-1-1.2v-0.4
			c0.6,0,1.3,0.1,1.9,0.1c0.6,0,1.3-0.1,1.9-0.1v0.4c-0.8,0.1-1.2,0.8-1.6,1.7l-4.4,11.5H157.9z"/>
		<path class="st1" d="M167.5,217.2c0.7-0.1,1.1-0.5,1.1-1.2v-3.2c0-2.6-0.2-5.3-0.2-7c0-0.5-0.4-0.8-1-0.9v-0.4h7.5
			c0.5,0,1.2-0.2,1.5-0.3c0,0.5-0.1,1-0.1,1.4c0,0.5,0.1,0.9,0.1,1.4h-0.7c-0.3-0.9-0.8-1.6-1.8-1.6h-3.3v5.1h2.9
			c1.1,0,1.5-0.1,1.9-1h0.6c0,0.6-0.1,1.1-0.1,1.7c0,0.6,0.1,1.1,0.1,1.7h-0.6c-0.4-1.3-0.8-1.4-1.9-1.4h-2.9v5.3h3.2
			c1.4,0,1.9-0.2,2.8-1.4l0.6,0.3l-0.7,2.3c-0.6-0.2-1.2-0.3-1.8-0.3h-7.3v-0.5H167.5z"/>
		<path class="st1" d="M181.3,217.3c0.6-0.2,1-0.5,1-1.1v-4.9c0-1.6-0.1-3.3-0.1-4.9c0-0.9-0.1-1.4-1.1-1.6v-0.4
			c0.6,0,1.2,0.1,1.8,0.1c0.6,0,1.1-0.1,2.6-0.1c3.4,0,5.1,1.7,5.1,3.8c0,1.9-1.8,3.2-3.4,3.6l3.8,4.5c0.3,0.3,0.9,1,1.4,1.1v0.4
			c-0.6,0-1.3-0.1-1.9-0.1c-0.6,0-1.3,0.1-1.9,0.1v-0.4c0.1,0,0.2-0.1,0.2-0.2c0-0.2-0.1-0.3-0.3-0.6l-3.2-3.7
			c-0.3-0.3-0.7-0.8-1.1-0.8v3.8c0,0.8,0.1,1.4,1.1,1.6v0.4c-0.7,0-1.4-0.1-2-0.1c-0.7,0-1.3,0.1-2,0.1V217.3z M184.3,211.4
			c0.3,0,0.5,0.1,0.7,0.1c1.8,0,3.3-1.2,3.3-3s-0.8-3.3-2.9-3.3c-0.5,0-1,0.1-1,0.5L184.3,211.4z"/>
		<path class="st1" d="M195.3,215.1h0.7c0.5,1.4,1.7,2,3.1,2c1.3,0,2.5-1,2.5-2.4c0-4-6.5-1.5-6.5-6.7c0-2.5,2.2-3.9,4.4-3.9
			c1.2,0,2.8,0.5,3.4,0.9l0.2,2h-0.7c-0.3-1.3-1.6-2.1-2.9-2.1c-1.4,0-2.6,1-2.6,2.4c0,3.4,6.5,1.4,6.5,6.4c0,2.5-2,4.2-4.5,4.2
			c-1.3,0-2.6-0.2-3.7-0.7L195.3,215.1L195.3,215.1z"/>
		<path class="st1" d="M211.8,204.8c-0.7,0.1-0.8,0.6-0.8,1.3c0,1.8-0.1,4.1-0.1,6.1v3.7c0,0.6,0.2,1.4,0.9,1.4v0.4
			c-0.6,0-1.3-0.1-2-0.1s-1.3,0.1-2,0.1v-0.4c0.6,0,1-0.6,1-1.4v-2.7c0-2.3-0.2-5.6-0.2-6.8c0-0.8-0.1-1.4-0.9-1.5v-0.4
			c0.6,0,1.3,0.1,2,0.1c0.6,0,1.3-0.1,2-0.1v0.3H211.8z"/>
		<path class="st1" d="M227,206.9h-0.7c-0.2-1.1-0.8-1.5-1.8-1.5H222c0,1.6-0.1,3.7-0.1,6v4.1c0,1.2,0.4,1.5,1.2,1.8v0.4
			c-0.7,0-1.5-0.1-2.2-0.1s-1.4,0.1-2.2,0.1v-0.4c0.9-0.3,1.1-0.7,1.1-1.8v-3c0-2.7-0.2-5.4-0.2-7.1H217c-1.1,0-1.7,0.3-1.8,1.5
			h-0.7v-2.7c0.7,0.2,1.5,0.3,2.2,0.3h8.4c0.5,0,1.4-0.1,1.8-0.3v2.7H227z"/>
		<path class="st1" d="M232.2,217.3c0.9-0.2,1.2-0.6,1.2-1.5v-3.7l-3.6-5.9c-0.4-0.6-0.6-1-1.1-1.4v-0.4c0.6,0,1.3,0.1,2,0.1
			c0.6,0,1.3-0.1,2-0.1v0.4c-0.4,0.1-0.6,0.3-0.6,0.7c0,0.2,0.1,0.7,0.4,1.2l2.4,4.3l2.4-4.1c0.4-0.6,0.4-1.1,0.4-1.4
			c0-0.4-0.4-0.6-0.8-0.6v-0.4c0.6,0,1.1,0.1,1.7,0.1c0.6,0,1.1-0.1,1.7-0.1v0.4c-0.6,0.2-1,0.8-1.5,1.6l-3.3,5.4v3.9
			c0,0.9,0.3,1.4,1.1,1.5v0.4c-0.7,0-1.4-0.1-2.2-0.1c-0.7,0-1.4,0.1-2.2,0.1L232.2,217.3L232.2,217.3z"/>
		<path class="st1" d="M105,201.1c0.9,0,1.7,0.1,2.6,0.1s1.4-0.1,2.2-0.1v0.5c-1.1,0.1-1.3,0.9-1.3,2.4c0,2.3,0,4.5,0,6.8
			c0,3.2,1.5,5.5,5,5.5c1.9,0,4.4-1.1,4.4-3.8v-2.8c0-2.8-0.2-5.6-0.2-6.8c0-0.7-0.6-1.1-1.2-1.2v-0.5c0.9,0,1.6,0.1,2.4,0.1
			c0.9,0,1.5-0.1,2.4-0.1v0.5c-0.8,0-1.1,1-1.1,1.8c0,0.9-0.1,3.4-0.1,6.5v5.2c0,1.3,0.3,2,1.3,2.1v0.5c-0.7,0-1.4-0.1-2-0.1
			c-0.7,0-1,0.1-1.6,0.1c0-0.8,0.1-1.5,0.2-2.3c-1.7,1.6-3.1,2.5-5.5,2.5c-2.9,0-6.1-2-6.1-5.6v-4c0-1.9-0.1-3.5-0.1-5
			c0-0.9-0.2-1.7-1.2-1.8v-0.5H105z"/>
	</g>
</g>
</svg>
